<?xml version="1.0" encoding="UTF-8" standalone="no"?>
<!-- Created with Inkscape (http://www.inkscape.org/) -->

<svg
   xmlns:dc="http://purl.org/dc/elements/1.1/"
   xmlns:cc="http://creativecommons.org/ns#"
   xmlns:rdf="http://www.w3.org/1999/02/22-rdf-syntax-ns#"
   xmlns:svg="http://www.w3.org/2000/svg"
   xmlns="http://www.w3.org/2000/svg"
   xmlns:sodipodi="http://sodipodi.sourceforge.net/DTD/sodipodi-0.dtd"
   xmlns:inkscape="http://www.inkscape.org/namespaces/inkscape"
   width="69.423141mm"
   height="53.808918mm"
   viewBox="0 0 69.423141 53.808918"
   version="1.1"
   id="svg8"
   inkscape:version="0.92.4 (5da689c313, 2019-01-14)"
   sodipodi:docname="lightLogo.svg">
  <defs
     id="defs2" />
  <sodipodi:namedview
     id="base"
     pagecolor="#ffffff"
     bordercolor="#666666"
     borderopacity="1.0"
     inkscape:pageopacity="0.0"
     inkscape:pageshadow="2"
     inkscape:zoom="0.49497475"
     inkscape:cx="130.16819"
     inkscape:cy="209.31947"
     inkscape:document-units="mm"
     inkscape:current-layer="layer1"
     showgrid="false"
     fit-margin-top="0"
     fit-margin-left="0"
     fit-margin-right="0"
     fit-margin-bottom="0"
     inkscape:window-width="1920"
     inkscape:window-height="1017"
     inkscape:window-x="-8"
     inkscape:window-y="-8"
     inkscape:window-maximized="1" />
  <metadata
     id="metadata5">
    <rdf:RDF>
      <cc:Work
         rdf:about="">
        <dc:format>image/svg+xml</dc:format>
        <dc:type
           rdf:resource="http://purl.org/dc/dcmitype/StillImage" />
        <dc:title></dc:title>
      </cc:Work>
    </rdf:RDF>
  </metadata>
  <g
     inkscape:label="Layer 1"
     inkscape:groupmode="layer"
     id="layer1"
     transform="translate(-249.2152,-130.4918)">
    <path
       inkscape:transform-center-x="0.13658552"
       inkscape:transform-center-y="-1.9545992"
       inkscape:connector-curvature="0"
       id="path4553"
       d="m 282.21286,143.37031 c 0.0467,1.03622 -0.15528,1.82622 -0.53907,2.1083 -0.16938,0.12413 -0.71447,0.34856 -1.21168,0.49818 -0.49722,0.14963 -0.91435,0.33793 -0.92695,0.41843 -0.0126,0.0805 0.28978,0.18606 0.67199,0.23458 0.76268,0.0968 1.56227,0.63148 1.96643,1.31493 0.21857,0.36963 0.207,0.46461 -0.0969,0.79492 -0.18982,0.20633 -0.96143,0.85164 -1.7147,1.43404 -1.52032,1.17546 -1.61133,1.13343 -0.67977,-0.31391 l 0.46961,-0.72965 -0.44716,-0.68614 c -0.44532,-0.68337 -0.44814,-0.68496 -0.68949,-0.39541 -0.37933,0.45511 -1.0822,0.54756 -1.69087,0.22238 -0.29677,-0.15855 -0.58824,-0.41216 -0.64772,-0.5636 -0.0974,-0.24786 -0.16409,-0.23429 -0.6685,0.13596 -0.3083,0.22604 -0.5971,0.50454 -0.64204,0.6185 -0.0449,0.11395 0.14702,0.77834 0.42658,1.47643 0.27955,0.69808 0.49529,1.35218 0.47942,1.45355 -0.0176,0.11272 -0.49874,-0.4894 -1.23845,-1.55 -1.32549,-1.9005 -1.68987,-2.55284 -1.58094,-2.83034 0.217,-0.55283 1.62275,-1.05265 2.58139,-0.91783 0.35086,0.0493 0.64486,0.0455 0.65335,-0.009 0.008,-0.0541 -0.41276,-0.39003 -0.93609,-0.7463 -0.92471,-0.62952 -0.95444,-0.6633 -1.05463,-1.19841 -0.11924,-0.63684 0.28989,-2.27178 0.63066,-2.52028 0.19196,-0.13998 0.21592,0.0207 0.1392,0.93374 -0.051,0.60654 -0.12395,1.22631 -0.16216,1.37727 -0.13424,0.53008 1.19053,1.86057 1.51142,1.51795 0.12474,-0.13319 0.0651,-0.35232 -0.23316,-0.85717 -0.52796,-0.89356 -0.55279,-1.24364 -0.14144,-1.99423 0.35708,-0.65159 0.97735,-1.21536 1.12076,-1.01869 0.0456,0.0626 -0.10565,0.48235 -0.33615,0.93288 -0.51819,1.01278 -0.56821,1.4284 -0.2371,1.97004 0.21746,0.3558 0.30287,0.39882 0.54029,0.27264 0.3948,-0.20984 1.42363,-0.0564 1.6435,0.24512 0.16275,0.22318 0.21877,0.21168 0.49965,-0.10265 0.54445,-0.6093 0.58759,-0.8594 0.3518,-2.03931 -0.12615,-0.63119 -0.15723,-1.15315 -0.0691,-1.1599 0.22288,-0.0171 0.69684,0.94178 0.81486,1.64854 0.12066,0.72247 -0.0358,1.06371 -0.75442,1.64553 -0.38658,0.31294 -0.54946,0.53729 -0.5268,0.72543 0.0378,0.31412 0.1285,0.30313 1.01443,-0.12277 0.79139,-0.38047 0.97078,-0.68447 1.16844,-1.98065 0.23507,-1.54122 0.47806,-1.65042 0.54148,-0.24331 z m -1.5182,4.11152 c -0.57036,-0.29824 -1.1076,-0.53686 -1.19387,-0.53025 -0.32117,0.0246 -0.17858,0.25655 0.29813,0.48488 0.48271,0.23124 0.91983,0.83054 1.08559,1.48838 0.0527,0.20921 0.12615,0.21735 0.36827,0.0408 0.27547,-0.20088 0.60435,-0.76953 0.51552,-0.89136 -0.0202,-0.0276 -0.50326,-0.29421 -1.07362,-0.59246 z m -5.65885,-0.66298 c -0.99942,0.19952 -1.16556,0.44849 -0.75268,1.12787 0.24724,0.40675 0.29942,0.43404 0.42836,0.22379 0.42375,-0.69108 0.87687,-1.08334 1.33246,-1.1535 0.25544,-0.0393 0.53068,-0.12247 0.61163,-0.18474 0.2402,-0.18475 -0.72167,-0.19272 -1.61977,-0.0134 z"
       style="fill:#52485b;fill-opacity:1;stroke-width:0.14282666" />
    <path
       style="fill:#52485b;fill-opacity:1;stroke-width:0.13141966"
       d="m 287.06727,184.2065 c -3.83874,-0.46827 -7.97282,-1.34321 -10.94087,-3.97899 -3.03059,-2.79725 -3.96597,-7.7778 -1.3898,-11.19119 2.15302,-3.07465 6.29726,-3.63778 9.69454,-4.25835 3.19508,0.78498 0.7639,-4.8785 -0.85146,-1.9264 -2.00654,2.48282 -6.26539,3.23547 -8.64023,0.88284 -2.19898,2.26863 -5.21115,0.87539 -7.18655,-0.40906 -3.58942,2.73737 -8.60097,2.54847 -12.80345,1.37019 -3.22395,-0.90391 -5.69331,-3.36636 -5.72022,-6.76753 -0.27432,-3.92027 3.5223,-7.04488 7.17963,-7.4101 3.34295,-0.62683 6.49752,0.94143 8.72434,3.36972 1.95697,1.36029 -0.25263,6.57071 -1.78353,2.85486 -1.7843,-2.088 -4.44412,-3.75095 -7.50318,-2.68999 -3.32122,1.15187 -3.37302,5.07918 -1.08252,6.92356 3.45977,2.15672 8.19843,0.49606 10.64103,-2.46126 2.50942,-2.70092 0.26849,-6.01779 -0.74479,-8.78295 -1.83468,-3.45745 1.29072,-7.01191 4.98484,-6.42111 2.86207,-0.11737 6.18596,4.10563 2.78232,5.90522 -1.36661,1.46979 -2.63056,-1.42136 -1.37871,-2.28354 -3.40646,-1.47319 -1.75528,3.8287 -0.26302,4.93616 1.721,2.23241 1.22121,7.17765 -0.64685,8.7272 2.51261,1.58969 4.82208,-2.56317 6.25647,-4.18024 0.66908,-0.96575 2.27966,-4.97741 0.97006,-4.50009 -0.93508,2.65815 -1.63006,5.53502 -3.83673,7.47149 -0.51946,-2.81862 0.10515,-6.46596 1.85106,-8.9843 2.30167,-3.86801 6.28317,-1.51736 5.00912,3.36775 -0.67994,2.60713 -1.73623,5.58004 -2.58463,7.23739 1.21533,1.19748 3.551,-2.02068 3.46593,-4.32511 -0.20636,-5.58988 1.11522,-11.09 2.7558,-16.35713 1.29383,-3.69981 2.97618,-7.91379 6.73105,-9.70483 3.64302,-0.95782 4.21409,3.65263 3.70799,6.19944 -0.0125,1.42572 -1.77982,5.6715 0.37001,2.52185 1.62494,-3.08037 7.70749,-3.97312 6.9502,0.79478 0.054,3.48326 -1.89352,6.56336 -3.13643,9.69765 3.74215,-1.45337 5.73885,3.40997 3.28551,5.87548 -1.50205,2.79343 -4.5371,4.11635 -7.31023,4.9453 0.801,3.60816 5.17841,4.12762 7.00799,0.96719 0.83708,-0.58843 1.65907,2.98108 0.37481,3.57027 -3.32501,1.64022 4.80029,1.26399 3.42939,1.22945 -3.29711,-1.41178 -2.42853,-5.91547 -3.03662,-8.83555 0.43236,-2.98712 0.869,-6.55714 3.42736,-8.53674 3.69128,-1.81168 4.79567,3.31896 2.72689,5.56727 -0.50763,0.91154 -2.13639,4.90768 -2.48092,3.9179 -0.30118,-1.86039 1.23979,-5.47112 0.40009,-6.1988 -1.27742,2.66978 -1.55971,6.02128 -0.56203,8.8167 2.06727,2.37857 6.91108,0.6752 6.4488,-2.69383 0.45486,-3.32021 -0.0125,-7.63405 3.30857,-9.61965 4.04059,-0.52692 3.2076,4.71878 1.86374,6.93961 -1.88432,2.55508 -1.82116,5.6864 -2.50762,8.63156 -1.09207,4.9018 -3.41113,9.59163 -7.26397,12.90302 -2.52266,2.64376 -5.68741,4.56094 -9.21313,5.54178 -3.66816,1.32451 -7.61049,1.62907 -11.47998,1.35111 z m 4.36781,-3.59218 c 6.78894,-0.65092 13.45224,-4.52777 16.81913,-10.52929 -4.01425,-0.61149 -8.09575,-0.66719 -12.12704,-1.1545 -4.9837,-0.0997 -10.0105,-0.52709 -14.97378,-0.02 -2.76068,0.3754 -5.37412,3.17049 -4.20684,6.03094 1.14222,3.27913 4.93803,4.24555 7.9255,5.10073 2.15794,0.40143 4.36121,0.98811 6.56303,0.57206 z m 19.07952,-14.29217 c 0.13435,-0.92387 -2.21129,0.80417 -0.19404,0.23758 z m -16.67922,-1.37019 c -1.48746,-0.90786 -1.69149,-5.77659 -3.07757,-2.33212 -0.50277,0.5048 -1.17081,1.2295 -1.37778,1.76431 -0.20696,0.5348 0.0471,0.87971 1.38866,0.62492 1.02155,0.009 2.05,0.0729 3.06667,-0.0571 z m -5.2092,-6.99004 c 4.71673,-2.71404 6.32102,-8.26188 8.63008,-12.83983 0.72098,-1.50582 2.76269,-7.33525 0.006,-3.84288 -3.09519,4.00092 -4.99246,8.81974 -6.58518,13.57658 0.23136,2.4413 -4.54559,4.51292 -3.26053,0.8054 0.43629,-1.53123 1.35697,-4.40839 -0.13829,-1.41893 -1.70483,1.50124 -1.58541,4.94406 1.34746,3.71966 z m 6.58378,-0.6629 c 1.71184,-0.83896 4.60825,-2.98534 4.36521,-4.56011 -1.82511,0.57919 -5.15968,3.94694 -4.91455,4.80506 z m 20.31125,-2.8781 c 0.96017,-0.91844 0.85809,-4.21496 -0.004,-1.47105 0.006,0.1541 -0.53092,2.62758 0.004,1.47105 z m -29.34823,-3.93483 c 2.26883,-5.25446 4.80014,-10.62598 5.10795,-16.42821 -2.7133,2.39547 -3.66002,6.19238 -4.83607,9.52082 -0.86876,2.71327 -1.57949,5.61461 -1.15835,8.45157 0.39209,-0.45452 0.61549,-1.01745 0.88647,-1.54418 z"
       id="path4540-3"
       inkscape:connector-curvature="0"
       sodipodi:nodetypes="cccccccsccccsccccccccccccscsccccccccccccccccccccccccccccccccccccccsccccccccccccccccccccccc" />
  </g>
</svg>
