<?xml version="1.0" encoding="UTF-8" standalone="no"?>
<!-- Created with Inkscape (http://www.inkscape.org/) -->

<svg
   xmlns:dc="http://purl.org/dc/elements/1.1/"
   xmlns:cc="http://creativecommons.org/ns#"
   xmlns:rdf="http://www.w3.org/1999/02/22-rdf-syntax-ns#"
   xmlns:svg="http://www.w3.org/2000/svg"
   xmlns="http://www.w3.org/2000/svg"
   xmlns:sodipodi="http://sodipodi.sourceforge.net/DTD/sodipodi-0.dtd"
   xmlns:inkscape="http://www.inkscape.org/namespaces/inkscape"
   width="91.580193mm"
   height="49.419952mm"
   viewBox="0 0 91.580192 49.419952"
   version="1.1"
   id="svg8"
   inkscape:version="0.92.4 (5da689c313, 2019-01-14)"
   sodipodi:docname="lightLogo.svg">
  <defs
     id="defs2" />
  <sodipodi:namedview
     id="base"
     pagecolor="#ffffff"
     bordercolor="#666666"
     borderopacity="1.0"
     inkscape:pageopacity="0.0"
     inkscape:pageshadow="2"
     inkscape:zoom="0.35"
     inkscape:cx="-690.93228"
     inkscape:cy="-16.343969"
     inkscape:document-units="mm"
     inkscape:current-layer="layer1"
     showgrid="false"
     fit-margin-top="0"
     fit-margin-left="0"
     fit-margin-right="0"
     fit-margin-bottom="0"
     inkscape:window-width="1920"
     inkscape:window-height="1017"
     inkscape:window-x="-8"
     inkscape:window-y="-8"
     inkscape:window-maximized="1" />
  <metadata
     id="metadata5">
    <rdf:RDF>
      <cc:Work
         rdf:about="">
        <dc:format>image/svg+xml</dc:format>
        <dc:type
           rdf:resource="http://purl.org/dc/dcmitype/StillImage" />
        <dc:title></dc:title>
      </cc:Work>
    </rdf:RDF>
  </metadata>
  <g
     inkscape:label="Layer 1"
     inkscape:groupmode="layer"
     id="layer1"
     transform="translate(5.422978,-95.089037)">
    <path
       style="fill:#52485b;fill-opacity:1;stroke-width:0.02119884"
       d="m 44.735556,144.49066 c -0.140565,-0.007 -0.45098,-0.0147 -0.689807,-0.016 -0.930615,-0.005 -2.311608,-0.1454 -3.369047,-0.34184 -0.831439,-0.15446 -2.706165,-0.6198 -3.364346,-0.83509 -0.616911,-0.20179 -0.95631,-0.34048 -1.2849,-0.52505 -0.09197,-0.0517 -0.287444,-0.14996 -0.4344,-0.21844 -0.401576,-0.18712 -0.633216,-0.32229 -0.938417,-0.54756 -0.15194,-0.11216 -0.378117,-0.26446 -0.502615,-0.33846 -0.516787,-0.30716 -1.155541,-0.84636 -1.684872,-1.42227 -0.430532,-0.46842 -0.863307,-1.09366 -1.097827,-1.58606 -0.226222,-0.47497 -0.439794,-1.11903 -0.506701,-1.52802 -0.05123,-0.31319 -0.05925,-1.13559 -0.01407,-1.44099 0.08295,-0.56048 0.262963,-1.19565 0.48514,-1.71178 0.08928,-0.2074 0.481097,-0.95362 0.637746,-1.21461 0.311829,-0.5195 0.754412,-1.11953 1.063177,-1.4414 0.768089,-0.80069 1.586836,-1.48369 2.372555,-1.97918 0.939738,-0.59261 1.764532,-1.02564 2.910921,-1.52827 0.245502,-0.10764 0.567648,-0.25058 0.715883,-0.31766 0.945342,-0.42773 2.419104,-1.00923 3.323196,-1.31125 0.38975,-0.1302 1.02649,-0.30989 1.855607,-0.52368 0.351413,-0.0906 1.041458,-0.27864 1.533433,-0.41785 1.418877,-0.40148 1.704249,-0.46706 3.392132,-0.77955 3.135376,-0.58047 4.445306,-0.7914 5.715513,-0.92038 1.534602,-0.15581 2.439113,-0.20253 3.578004,-0.18482 0.812226,0.0126 1.194555,0.0309 2.009726,0.0962 0.319467,0.0256 0.76381,0.0563 0.987435,0.0682 1.122344,0.0598 2.001792,0.20676 3.589621,0.59987 0.166124,0.0411 0.521598,0.12269 0.789951,0.18125 0.561942,0.12263 0.863266,0.19915 1.335941,0.33927 0.185293,0.0549 0.681915,0.18171 1.103607,0.28174 1.062874,0.25212 2.907734,0.77508 4.251784,1.20524 0.973461,0.31155 1.131562,0.36698 2.528281,0.88651 0.761513,0.28327 0.849479,0.31295 1.398232,0.47175 0.230013,0.0666 0.658678,0.20155 0.952586,0.29997 0.629824,0.2109 2.854909,0.90513 3.401251,1.0612 0.209474,0.0598 0.646462,0.16972 0.971077,0.24418 0.324619,0.0745 0.697646,0.16049 0.828949,0.19118 0.533736,0.12477 1.052353,0.18758 1.768859,0.21422 0.63199,0.0235 1.152892,0.002 1.222182,-0.05 0.06265,-0.0472 0.234282,-0.0484 0.346101,-0.002 0.126311,0.052 0.18455,0.22522 0.212723,0.63278 0.05439,0.78701 0.02802,1.18974 -0.09063,1.38297 -0.13764,0.22417 -0.184932,0.2624 -0.472859,0.38223 -0.82481,0.34327 -1.903822,0.47329 -3.503759,0.42219 -0.778881,-0.0249 -1.002486,-0.0402 -1.593797,-0.10899 -1.923145,-0.2238 -3.366442,-0.56306 -5.123053,-1.2042 -0.812336,-0.29649 -1.695574,-0.6485 -1.8793,-0.74898 -0.04618,-0.0253 -0.134474,-0.0571 -0.196216,-0.0707 -0.09634,-0.0212 -0.115002,-0.0207 -0.131554,0.004 -0.01058,0.0158 -0.08555,0.0954 -0.166543,0.17693 -0.08099,0.0815 -0.203891,0.22511 -0.273119,0.31907 -0.383253,0.52016 -0.586676,0.7451 -1.580064,1.74721 -0.605577,0.6109 -0.683481,0.68376 -1.209822,1.13152 -0.250107,0.21276 -0.553454,0.47823 -0.674109,0.58993 -0.120654,0.1117 -0.366426,0.33365 -0.546165,0.49323 -0.179739,0.15957 -0.453117,0.40788 -0.607514,0.55179 -0.426327,0.39739 -1.25578,1.05747 -2.307916,1.83666 -0.607686,0.45003 -1.661523,1.17643 -2.160746,1.48937 -0.108615,0.0681 -0.31772,0.20304 -0.464672,0.29989 -0.778064,0.51278 -1.454659,0.92263 -2.311764,1.40032 -0.523924,0.292 -1.088503,0.60722 -1.254623,0.70048 -0.349252,0.19606 -1.48416,0.68336 -2.266589,0.97322 -0.27545,0.10204 -0.604786,0.23376 -0.731864,0.29271 -0.477401,0.22146 -0.854484,0.35637 -1.648308,0.58972 -0.28113,0.0826 -0.709791,0.21278 -0.952585,0.28922 -1.085247,0.34165 -1.521459,0.48028 -2.009726,0.63871 -0.523858,0.16997 -1.243249,0.36999 -1.591512,0.44249 -0.175517,0.0366 -0.714381,0.12856 -1.023471,0.17477 -0.328561,0.0491 -1.325948,0.155 -1.63683,0.17374 -0.369441,0.0223 -2.157128,0.0628 -2.509218,0.0569 -0.121397,-0.002 -0.335728,-0.01 -0.476293,-0.0173 z m 0.371738,-3.32484 c 0.912354,-0.0899 2.181593,-0.2817 3.83358,-0.57945 1.956671,-0.35266 2.57624,-0.4821 3.727684,-0.77878 1.032991,-0.26615 1.906865,-0.57754 3.311222,-1.17987 1.632059,-0.69999 2.019049,-0.89905 3.602172,-1.85286 0.654904,-0.39458 0.805355,-0.49667 1.570436,-1.06566 0.500277,-0.37206 0.921961,-0.6753 1.612592,-1.15964 0.293908,-0.20612 0.5762,-0.40669 0.62731,-0.44571 0.328561,-0.25085 0.68856,-0.5202 0.929352,-0.69534 0.370807,-0.26971 0.717803,-0.5345 0.991127,-0.75633 0.4716,-0.38276 1.763507,-1.48932 2.029604,-1.73843 0.153158,-0.14338 0.463749,-0.42899 0.6902,-0.63469 0.428616,-0.38933 0.739753,-0.70185 1.103767,-1.10868 0.117919,-0.13179 0.256023,-0.27947 0.306891,-0.32816 l 0.09249,-0.0885 -0.481145,-0.1964 c -0.759593,-0.31005 -2.19398,-0.79716 -3.05239,-1.03657 -2.074991,-0.57872 -2.833957,-0.74966 -5.15399,-1.16079 -1.272692,-0.22552 -2.081267,-0.32955 -3.322432,-0.42744 -0.210848,-0.0166 -0.55064,-0.0433 -0.755098,-0.0594 -1.170919,-0.0918 -2.760794,-0.064 -4.077534,0.0712 -1.103705,0.11337 -3.045199,0.42325 -4.18208,0.66748 -0.675979,0.14523 -1.537063,0.34945 -1.899695,0.45055 -0.417545,0.11642 -1.716039,0.52935 -2.224306,0.70735 -1.81853,0.63686 -2.363153,0.87222 -3.543154,1.53117 -1.684794,0.94084 -2.205954,1.26012 -2.896068,1.77423 -0.430552,0.32075 -0.897111,0.72018 -1.07475,0.92012 -0.26204,0.29494 -0.704783,0.95583 -0.862515,1.28751 -0.09939,0.20898 -0.360072,0.82813 -0.442755,1.05157 -0.09182,0.24813 -0.198698,0.71566 -0.232195,1.0157 -0.0388,0.34756 -0.01571,1.05596 0.04766,1.46267 0.08213,0.52705 0.146287,0.75848 0.265436,0.95743 0.191335,0.3195 0.682325,0.90166 1.001493,1.18747 0.199494,0.17865 0.614093,0.46961 0.871265,0.61145 0.286229,0.15787 1.170029,0.58323 1.485325,0.71487 0.135294,0.0565 0.42364,0.16161 0.640764,0.23361 1.15888,0.38426 2.294429,0.60666 3.49649,0.68478 0.454458,0.0295 1.48793,0.0103 1.963254,-0.0365 z m 24.151534,-6.12295 c 0,-0.0387 0.01161,-0.0483 0.05808,-0.0483 0.04647,0 0.05808,0.01 0.05808,0.0483 0,0.0387 -0.01161,0.0484 -0.05808,0.0484 -0.04647,0 -0.05808,-0.01 -0.05808,-0.0484 z m 0.116167,-0.11605 c 0,-0.0387 0.01161,-0.0484 0.05808,-0.0484 0.04647,0 0.05808,0.01 0.05808,0.0484 0,0.0387 -0.01161,0.0484 -0.05808,0.0484 -0.04647,0 -0.05808,-0.01 -0.05808,-0.0484 z m 0.116167,-0.11605 c 0,-0.0387 0.01161,-0.0484 0.05809,-0.0484 0.04647,0 0.05808,0.01 0.05808,0.0484 0,0.0387 -0.01161,0.0483 -0.05808,0.0483 -0.04647,0 -0.05809,-0.01 -0.05809,-0.0483 z m 0.120273,-0.11947 c 0.006,-0.0437 0.02063,-0.0559 0.07311,-0.0609 0.05967,-0.006 0.06492,-0.001 0.05809,0.0484 -0.006,0.0437 -0.02063,0.0559 -0.07312,0.0609 -0.05967,0.006 -0.06492,0.001 -0.05808,-0.0483 z m 0.1394,-0.1354 c 0.0054,-0.0395 0.02199,-0.0563 0.05979,-0.0608 0.03782,-0.004 0.05227,-0.0192 0.05227,-0.0532 0,-0.0373 0.01206,-0.047 0.05808,-0.047 0.04647,0 0.05809,0.01 0.05809,0.0483 0,0.0349 -0.01251,0.0484 -0.04493,0.0484 -0.03175,0 -0.04708,0.0156 -0.05227,0.0532 -0.0058,0.0422 -0.02096,0.0545 -0.07295,0.0594 -0.05967,0.006 -0.06492,0.001 -0.05808,-0.0484 z m 0.228241,-0.22869 c 0,-0.0387 0.01161,-0.0483 0.05808,-0.0483 0.04647,0 0.05808,0.01 0.05808,0.0483 0,0.0387 -0.01161,0.0484 -0.05808,0.0484 -0.04647,0 -0.05808,-0.01 -0.05808,-0.0484 z M 2.87987,127.69089 c -1.2775946,-0.0922 -1.8513617,-0.15267 -2.56039447,-0.26984 -0.77921696,-0.12876 -1.21655358,-0.2462 -1.72624023,-0.46355 -0.8582244,-0.36597 -1.7446333,-0.88818 -2.2690213,-1.33673 -0.6563802,-0.56148 -1.1383337,-1.26394 -1.4115927,-2.05745 -0.2096707,-0.60887 -0.2909383,-1.06978 -0.3188643,-1.80849 -0.034661,-0.91696 -0.014685,-1.71154 0.052542,-2.08895 0.1407663,-0.79031 0.5446639,-1.95098 0.9268335,-2.66338 0.2651536,-0.49428 0.8320787,-1.31661 0.9600018,-1.3925 0.023463,-0.0139 0.1136156,-0.11669 0.200347,-0.2284 0.2802159,-0.36088 0.5510629,-0.64183 0.8954332,-0.92881 0.3296319,-0.27471 0.7088851,-0.54725 0.9410877,-0.67631 0.063892,-0.0355 0.120634,-0.0676 0.1260937,-0.0713 0.00546,-0.004 -0.017146,-0.0306 -0.050261,-0.0597 -0.092802,-0.0817 -0.1189276,-0.1951 -0.1191819,-0.5172 -2.42e-4,-0.2402 0.00861,-0.31676 0.051135,-0.44487 0.065163,-0.19632 0.1541796,-0.35458 0.3007215,-0.53468 0.21622558,-0.26574 0.38765799,-0.37534 0.92118511,-0.58893 0.6167555,-0.24691 1.07355172,-0.29691 1.99980689,-0.21894 0.1277836,0.0108 0.3194181,0.0366 0.4258511,0.0573 0.1064331,0.0208 0.2001706,0.0377 0.2083089,0.0377 0.00812,0 -0.037943,-0.0457 -0.102368,-0.10155 -0.064441,-0.0558 -0.1895384,-0.17552 -0.2779968,-0.26595 -0.7208832,-0.7369 -1.0401947,-0.99458 -1.56375411,-1.26192 -0.20640145,-0.1054 -0.84910583,-0.3794 -1.09810183,-0.46815 -0.23276053,-0.083 -0.29107371,-0.12683 -0.31021337,-0.23337 -0.0198944,-0.11086 0.0424059,-0.20171 0.16255581,-0.23699 0.12736936,-0.0374 0.50804586,-0.0179 0.82744758,0.0424 0.43222559,0.0816 1.07134492,0.31771 1.69897462,0.6277 0.3259443,0.16098 0.8062857,0.4945 1.5596276,1.0829 0.3629069,0.28345 0.3956568,0.28406 0.4024988,0.007 0.01489,-0.60211 0.2320714,-1.1306 0.6100324,-1.4845 0.1711986,-0.1603 0.2029723,-0.18061 0.4014241,-0.25656 0.3899428,-0.14923 1.3010946,-0.36922 1.7002134,-0.41051 0.1950842,-0.0202 1.261556,0.001 1.524072,0.0306 0.2013069,0.0225 0.2555714,0.0672 0.2555714,0.21046 0,0.18119 -0.032241,0.19703 -0.6113614,0.30032 -0.6621517,0.11809 -1.5549104,0.41157 -2.0183025,0.66348 -0.1596845,0.0868 -0.1898994,0.11308 -0.2627006,0.22841 -0.080722,0.12789 -0.1108139,0.24148 -0.1633967,0.61678 l -0.01489,0.10638 0.2865164,0.0338 c 0.1575843,0.0186 0.3074241,0.0384 0.3329832,0.0441 0.034661,0.008 0.060815,-0.007 0.1030244,-0.0595 0.08023,-0.0991 0.3504493,-0.31996 0.5322965,-0.43506 0.1538597,-0.0974 0.5139486,-0.25417 0.7354698,-0.32022 0.099562,-0.0297 0.1975536,-0.0347 0.6853974,-0.0349 0.502418,-2e-4 0.5978619,0.005 0.8131851,0.0431 0.4767234,0.0848 0.8281777,0.18945 1.7266013,0.51431 0.757945,0.27405 0.73618,0.26166 0.73618,0.41932 0,0.0938 -0.0084,0.11685 -0.05164,0.14207 -0.07394,0.0431 -0.266056,0.0381 -0.652024,-0.0171 -0.7581903,-0.10837 -1.7254772,-0.14446 -2.2152448,-0.0826 -0.343558,0.0434 -0.5231943,0.12622 -0.9246061,0.42649 l -0.1736844,0.12993 0.059195,0.072 c 0.1021916,0.12432 0.2444798,0.37414 0.3249598,0.57056 0.1150595,0.28081 0.1548032,0.50837 0.1443145,0.82631 l -0.00882,0.26764 0.267623,0.0875 c 0.388425,0.12703 0.4271022,0.13313 0.6975596,0.11003 0.3631776,-0.031 0.5374855,-0.072 0.8206794,-0.19286 0.3503344,-0.14953 0.627819,-0.29488 0.971746,-0.509 0.333291,-0.2075 0.978387,-0.64963 1.283862,-0.87991 0.200003,-0.15077 0.216878,-0.15922 0.318701,-0.15957 0.145376,-4.1e-4 0.169418,0.0274 0.153043,0.17775 -0.02486,0.22832 -0.265109,0.56755 -0.718287,1.01424 -0.14952,0.14738 -0.374942,0.37682 -0.500933,0.50986 -0.287345,0.30341 -0.703487,0.69703 -0.867708,0.82074 -0.2940562,0.22152 -0.6208824,0.3432 -1.310193,0.4878 -0.4132131,0.0867 -0.4600163,0.0925 -0.7318642,0.0916 -0.3278394,-10e-4 -0.4852637,-0.0297 -0.886454,-0.16077 -0.1308847,-0.0428 -0.24119,-0.0751 -0.2451155,-0.0718 -0.0041,0.003 0.051045,0.0835 0.1221598,0.17831 0.1422964,0.18968 0.5149167,0.5193 0.6768162,0.59871 0.3317034,0.16269 0.7366224,0.12814 1.3432625,-0.11462 0.4203628,-0.16823 1.2260502,-0.57517 1.3830842,-0.69858 0.07066,-0.0555 0.164751,-0.11646 0.209105,-0.1354 0.04435,-0.019 0.110199,-0.055 0.14632,-0.0801 0.07013,-0.0487 0.153269,-0.0581 0.226276,-0.0256 0.08224,0.0366 0.04556,0.24824 -0.07867,0.45386 -0.07859,0.13007 -0.332413,0.36526 -0.751664,0.69648 -0.5492623,0.43392 -0.7225857,0.55359 -1.0124001,0.699 -0.542617,0.27224 -0.8877748,0.37315 -1.330206,0.38892 -0.2307588,0.008 -0.2730949,0.004 -0.4360486,-0.0414 -0.2403204,-0.0673 -0.5604195,-0.20279 -0.8176604,-0.34619 -0.2616258,-0.14585 -0.7048816,-0.47448 -0.965121,-0.71554 l -0.1974838,-0.18294 -0.016203,0.10867 c -0.0089,0.0598 -0.02654,0.22617 -0.039174,0.36979 -0.022397,0.25495 -0.047275,0.35391 -0.1858548,0.73959 -0.081588,0.22706 -0.1457092,0.32128 -0.3088023,0.45376 -0.2802816,0.22766 -0.6543744,0.43524 -1.4292598,0.79309 -0.9205862,0.42513 -1.1661407,0.51406 -1.4477143,0.52432 -0.1748575,0.006 -0.2048222,0.002 -0.2613798,-0.0346 -0.056775,-0.0372 -0.06388,-0.0545 -0.06388,-0.15581 0,-0.0981 0.00935,-0.12284 0.067247,-0.17774 0.037,-0.0351 0.1598363,-0.10661 0.2730006,-0.15899 0.3499201,-0.16195 0.8715598,-0.46971 1.1791521,-0.69568 0.2329164,-0.17111 0.7824739,-0.66819 0.8190919,-0.74088 0.023299,-0.0462 0.031175,-0.17551 0.030642,-0.50289 l -8.204e-4,-0.44065 -0.1096244,0.17495 c -0.1728639,0.27586 -0.3556628,0.45417 -0.7020922,0.68484 -0.4222989,0.2812 -0.594605,0.33702 -1.0339024,0.33499 -0.202238,-8.2e-4 -0.32738,-0.0121 -0.4556764,-0.0405 -0.2963652,-0.0657 -0.657701,-0.188 -0.88506752,-0.29966 -0.70577991,-0.34663 -1.12324262,-0.70475 -1.19253671,-1.02302 l -0.0155874,-0.0717 -0.0615004,0.0322 c -0.23746545,0.12454 -0.63608787,0.4018 -0.82299287,0.57242 -0.3319782,0.30306 -0.4308432,0.41981 -0.8132015,0.96032 -0.063966,0.0904 -0.1514273,0.2007 -0.1943582,0.24505 -0.057033,0.0589 -0.1212041,0.18396 -0.2382243,0.4642 -0.1541345,0.36914 -0.2492339,0.58863 -0.5265497,1.21529 -0.1864291,0.42129 -0.4227911,1.08787 -0.4756733,1.34149 -0.025186,0.12081 -0.057501,0.39063 -0.071809,0.59961 -0.062194,0.90858 0.061537,1.66577 0.3888106,2.37933 0.2748957,0.59938 0.6578406,1.19299 0.9998522,1.54991 0.3611595,0.3769 1.0586288,0.91425 1.41018974,1.08645 0.17765915,0.087 0.57561303,0.23824 0.73551489,0.27949 0.37742776,0.0974 1.00428224,0.17607 1.62636207,0.20421 0.4888365,0.0221 0.5107203,0.0215 1.0222898,-0.0309 0.6552891,-0.067 0.873176,-0.0975 1.5682827,-0.21989 0.3066857,-0.054 0.6726157,-0.11058 0.813181,-0.12576 0.2233958,-0.0241 0.3301611,-0.0509 0.8480352,-0.2129 1.2580365,-0.39342 1.6454853,-0.54814 2.6086702,-1.04168 0.8366647,-0.42872 1.6596576,-0.9009 2.2239576,-1.27597 0.108619,-0.0722 0.225278,-0.14908 0.259246,-0.17087 0.04625,-0.0297 0.09628,-0.0396 0.199244,-0.0396 0.117779,0 0.145565,0.007 0.193817,0.0499 0.05238,0.0464 0.05645,0.0651 0.05822,0.26595 0.0029,0.34789 0.08014,0.58485 0.337939,1.03881 0.166096,0.29249 0.187631,0.37164 0.135183,0.49688 -0.02613,0.0624 -0.144466,0.15121 -0.277529,0.20821 -0.04473,0.0192 -0.144052,0.0799 -0.220721,0.13493 -0.328877,0.23616 -0.766924,0.48199 -1.5682825,0.88012 -0.801351,0.39814 -2.3411785,1.03736 -2.95069,1.22491 -0.7055133,0.21709 -1.7562049,0.43608 -2.5324849,0.52783 -0.2324939,0.0275 -1.171543,0.0511 -1.3940281,0.035 z M 1.9750393,115.34866 c 0.2589473,-0.10623 0.5852485,-0.39015 0.8178326,-0.71162 l 0.083889,-0.11594 -0.1670433,-0.13907 c -0.091875,-0.0765 -0.2140229,-0.20046 -0.2714418,-0.27551 -0.097942,-0.12802 -0.1087917,-0.13586 -0.1754072,-0.12683 -0.09117,0.0123 -0.6012379,0.14514 -0.8100226,0.21086 -0.2030665,0.0639 -0.96465335,0.37953 -1.21499889,0.5035 l -0.18957119,0.0939 0.23363834,0.18562 c 0.24357734,0.19351 0.35019088,0.25058 0.65422262,0.3502 0.22395362,0.0734 0.37985612,0.0945 0.66650792,0.0902 0.1977669,-0.003 0.237445,-0.01 0.3723947,-0.0653 z m -2.43905085,-2.0146 c 0.53895809,-0.19585 1.34653176,-0.41616 1.99632425,-0.54462 0.1725113,-0.0341 0.3659301,-0.0724 0.4298219,-0.0851 0.099698,-0.0199 0.1171965,-0.0304 0.1234069,-0.0742 0.00599,-0.0423 -0.00796,-0.0575 -0.081317,-0.0886 -0.1382477,-0.0585 -0.3902135,-0.11789 -0.6708642,-0.15798 -0.2750228,-0.0393 -0.41546505,-0.0333 -0.71758529,0.0308 -0.19081408,0.0405 -0.4859282,0.16104 -0.64350425,0.26291 -0.20593383,0.13313 -0.61957763,0.54074 -0.73739358,0.72664 -0.0151772,0.0239 -0.0237912,0.0435 -0.0191561,0.0435 0.004635,0 0.14875278,-0.051 0.32028363,-0.11333 z M 17.568944,126.19288 c -0.881987,-0.0324 -1.529929,-0.1239 -2.096354,-0.29613 -0.839323,-0.2552 -1.335707,-0.46986 -1.789004,-0.77365 -0.362193,-0.24273 -0.974215,-0.79736 -1.222448,-1.10781 -0.230295,-0.28803 -0.465886,-0.76124 -0.602735,-1.21069 -0.07351,-0.24143 -0.196163,-0.94466 -0.196138,-1.12459 2.4e-5,-0.20051 0.04279,-0.54551 0.08423,-0.67952 0.05696,-0.18421 0.326498,-0.74046 0.435819,-0.89941 0.05487,-0.0798 0.111244,-0.17306 0.125265,-0.20728 0.08773,-0.21414 0.560509,-0.74887 1.095193,-1.2387 0.450315,-0.41254 1.32955,-0.99052 1.942031,-1.27662 0.600939,-0.28071 1.204289,-0.42946 2.067809,-0.5098 0.997645,-0.0928 1.67995,-0.0626 2.485132,0.11013 1.134535,0.24336 2.545788,0.82824 3.404636,1.41102 0.456976,0.31008 0.641941,0.48066 0.695143,0.64107 0.01259,0.0379 0.04133,0.0859 0.06389,0.1067 0.08689,0.0799 0.06101,0.65543 -0.03897,0.86677 -0.02264,0.0479 -0.110564,0.20445 -0.195364,0.34795 -0.218957,0.37051 -0.36949,0.48638 -0.591339,0.45518 -0.115921,-0.0163 -0.24642,-0.10742 -0.315079,-0.21999 -0.06285,-0.10304 -0.443776,-0.55479 -0.565108,-0.67018 -0.480189,-0.45664 -0.948401,-0.76033 -1.549873,-1.00524 -1.012921,-0.41247 -1.780939,-0.50243 -2.812225,-0.32943 -1.088507,0.18261 -1.826881,0.5336 -2.507094,1.19174 -0.94724,0.91652 -1.290195,1.96321 -0.931181,2.84196 0.192766,0.47181 0.628622,0.8379 1.347233,1.13156 0.761587,0.31122 1.64384,0.41261 2.671889,0.30707 0.861416,-0.0884 1.774955,-0.28672 2.288526,-0.49672 0.434273,-0.17758 1.517702,-0.80521 1.991193,-1.1535 0.681275,-0.50114 1.38468,-1.32929 1.744387,-2.05374 0.105994,-0.21348 0.320177,-0.84762 0.362058,-1.07199 0.125339,-0.67147 0.160751,-1.76701 0.0769,-2.37908 -0.09593,-0.70022 -0.214306,-1.1651 -0.430941,-1.69243 -0.584502,-1.42276 -0.798923,-1.88814 -1.093926,-2.37425 l -0.09684,-0.15957 h -0.102225 c -0.05623,0 -0.204563,-0.0169 -0.32964,-0.0375 -0.867462,-0.14317 -1.208965,-0.17923 -1.685983,-0.17803 -0.431968,0.001 -0.748551,0.025 -1.094956,0.0827 -0.738723,0.1231 -1.309245,0.29153 -1.791437,0.52885 -0.482925,0.2377 -1.206503,0.8387 -1.653972,1.37379 -0.09786,0.11702 -0.225721,0.26908 -0.284141,0.3379 -0.141952,0.16723 -0.214056,0.27728 -0.355212,0.54217 -0.148958,0.27953 -0.287685,0.58866 -0.342479,0.76313 -0.04441,0.14144 -0.09984,0.19802 -0.245198,0.25033 -0.03848,0.0139 -0.185124,0.0941 -0.325878,0.17845 -0.140758,0.0843 -0.307929,0.17848 -0.371489,0.20927 -0.332109,0.16089 -0.955202,0.5747 -1.430207,0.94984 -0.04763,0.0376 -0.08455,0.0474 -0.178877,0.0474 -0.109723,0 -0.123867,-0.005 -0.183935,-0.0713 l -0.06508,-0.0713 0.0053,-0.3853 c 0.0046,-0.33745 0.01263,-0.4108 0.06466,-0.59055 0.03269,-0.11289 0.06982,-0.29258 0.08255,-0.3993 0.04883,-0.40959 0.133026,-0.70551 0.349658,-1.22884 0.13513,-0.32645 0.592985,-1.01343 0.934598,-1.4023 0.217949,-0.2481 0.76354,-0.81005 0.965778,-0.99472 0.628479,-0.57392 1.640087,-1.18487 2.554504,-1.54278 0.827616,-0.32394 1.630968,-0.55081 2.315176,-0.65384 0.11501,-0.0173 0.287517,-0.0478 0.383359,-0.0677 0.450217,-0.0935 0.525574,-0.10003 1.219774,-0.10543 l 0.673781,-0.005 0.01469,-0.0559 c 0.0081,-0.0308 0.01591,-0.15191 0.01743,-0.26921 0.0033,-0.26333 0.03692,-0.49847 0.09663,-0.6777 0.05468,-0.16414 0.05576,-0.18252 0.01066,-0.18252 -0.05377,0 -0.0436,-0.12464 0.01743,-0.21362 0.03323,-0.0484 0.06923,-0.0763 0.09875,-0.0766 0.03642,-3e-4 0.06065,-0.0319 0.112077,-0.14608 0.137308,-0.30497 0.676824,-0.80957 1.251272,-1.17028 0.38916,-0.24437 1.044888,-0.48006 1.610574,-0.57889 0.298921,-0.0522 0.820359,-0.0717 1.078367,-0.0403 0.515709,0.0628 0.919598,0.25076 1.256683,0.58488 0.222141,0.2202 0.4373,0.60988 0.523277,0.94772 0.06022,0.23664 0.0844,0.61737 0.05787,0.91095 -0.03007,0.33271 -0.06831,0.49129 -0.188324,0.78105 -0.191093,0.46137 -0.296554,0.66178 -0.495273,0.94119 -0.05902,0.083 -0.142702,0.2092 -0.185961,0.28046 -0.04325,0.0713 -0.112389,0.15569 -0.153622,0.18761 -0.04123,0.0319 -0.102417,0.0834 -0.135959,0.11437 -0.25649,0.23697 -0.527042,0.4698 -0.568664,0.48938 -0.0667,0.0314 -0.272086,0.0301 -0.32293,-0.002 -0.02235,-0.0142 -0.04065,-0.0384 -0.04065,-0.054 0,-0.0156 -0.0838,-0.19165 -0.186228,-0.39121 -0.102425,-0.19957 -0.207849,-0.43391 -0.23427,-0.52076 -0.02642,-0.0868 -0.07749,-0.23625 -0.113468,-0.33199 -0.179702,-0.47814 -0.18213,-0.68784 -0.0121,-1.04448 0.06086,-0.12765 0.121693,-0.28559 0.135176,-0.35097 0.02408,-0.11681 0.02313,-0.12076 -0.0544,-0.22727 -0.04341,-0.0596 -0.08883,-0.1084 -0.100941,-0.1084 -0.03909,0 -0.265613,0.15225 -0.323343,0.21733 -0.08727,0.0984 -0.136394,0.22413 -0.149738,0.38338 -0.01998,0.23854 0.03864,0.42851 0.386337,1.25175 0.07761,0.18375 0.162749,0.40467 0.189207,0.49094 0.02646,0.0863 0.105912,0.27972 0.176568,0.42991 0.07066,0.15019 0.194829,0.42974 0.275954,0.62123 0.08112,0.19149 0.205642,0.48564 0.276721,0.65367 0.07108,0.16802 0.181182,0.45525 0.244672,0.63828 0.06349,0.18304 0.188365,0.51122 0.277496,0.7293 0.08913,0.21809 0.199539,0.51837 0.245346,0.66731 0.04581,0.14893 0.160747,0.46663 0.255419,0.70599 0.305267,0.7718 0.427254,1.26377 0.502882,2.02811 0.03388,0.34223 0.0146,1.06523 -0.03663,1.3761 -0.128859,0.78161 -0.226305,1.11565 -0.521927,1.78915 -0.286402,0.65249 -0.291976,0.66401 -0.44705,0.92382 l -0.135791,0.22751 0.162913,0.20215 c 0.205987,0.25559 0.472744,0.51946 0.626108,0.61934 0.211393,0.13767 0.541296,0.19493 0.842587,0.14625 0.143556,-0.0232 0.532637,-0.17336 0.855235,-0.33008 0.728947,-0.35412 1.365794,-1.01137 2.305073,-2.37893 0.466961,-0.67988 1.064794,-1.80746 1.41519,-2.66921 0.189415,-0.46584 0.526205,-1.40072 0.644542,-1.78915 0.05009,-0.16442 0.229758,-0.99205 0.296021,-1.36362 0.0475,-0.26634 0.05344,-0.54879 0.01317,-0.62677 l -0.029,-0.0562 -0.07127,0.0562 c -0.121188,0.0955 -0.263013,0.27653 -0.44561,0.56874 -0.207714,0.33241 -0.256191,0.4321 -0.410063,0.84326 -0.137452,0.36728 -0.272513,0.82744 -0.453609,1.5455 -0.07245,0.28723 -0.147641,0.57011 -0.167105,0.62862 -0.037,0.11119 -0.318852,0.65414 -0.647643,1.24756 -0.106097,0.19149 -0.24592,0.45928 -0.310718,0.59508 -0.179037,0.37525 -0.315431,0.60733 -0.371652,0.63237 -0.02748,0.0123 -0.09394,0.0196 -0.147662,0.0164 -0.123329,-0.007 -0.148827,-0.047 -0.180756,-0.28052 -0.0128,-0.0936 -0.03848,-0.27471 -0.057,-0.40236 -0.09459,-0.65114 -0.140967,-1.67996 -0.105497,-2.3404 0.05139,-0.9569 0.107991,-1.27412 0.399545,-2.23916 0.299967,-0.9929 0.756476,-1.85785 1.298859,-2.46098 0.402843,-0.44795 0.911615,-0.72059 1.551309,-0.83131 0.358366,-0.062 0.685516,-0.0208 1.063432,0.13407 0.327089,0.13403 0.708233,0.42779 0.901246,0.69463 0.104107,0.14393 0.171703,0.30626 0.315205,0.75695 0.21374,0.67128 0.265236,1.08516 0.267127,2.14698 0.0016,0.86468 -0.0061,0.93686 -0.196393,1.84717 -0.183611,0.87851 -0.289121,1.24844 -0.565682,1.98333 -0.22582,0.60006 -0.267435,0.69511 -0.457014,1.04371 -0.08677,0.15958 -0.215405,0.40395 -0.28584,0.54304 -0.07044,0.1391 -0.153404,0.29143 -0.184369,0.33849 -0.03097,0.0471 -0.120064,0.18568 -0.197997,0.30802 -0.07793,0.12234 -0.156198,0.23879 -0.173926,0.25879 -0.02773,0.0313 -0.02638,0.0569 0.0097,0.18285 0.02305,0.0806 0.05884,0.18172 0.07951,0.22476 0.0874,0.18198 0.421745,0.53599 0.543081,0.57503 0.252265,0.0812 0.744764,-0.0817 1.372226,-0.45371 0.273743,-0.1623 0.365996,-0.2335 0.732545,-0.56538 0.319271,-0.28907 0.44036,-0.41576 0.804108,-0.84129 0.659223,-0.7712 1.192692,-1.45705 1.820396,-2.3404 0.117172,-0.16489 0.302497,-0.42173 0.411831,-0.57075 0.297316,-0.40524 0.484607,-0.6909 0.89394,-1.36346 0.45735,-0.75146 0.5257,-0.87463 0.821196,-1.47977 0.598071,-1.22481 0.728267,-1.50064 0.917464,-1.94378 0.111278,-0.26064 0.311592,-0.70889 0.445147,-0.99612 0.133551,-0.28723 0.35081,-0.77031 0.48279,-1.07349 0.131989,-0.30319 0.352189,-0.79061 0.489337,-1.08316 0.137153,-0.29255 0.29415,-0.63636 0.348891,-0.76401 0.120252,-0.28047 0.194247,-0.44081 0.48197,-1.04448 0.255169,-0.53536 0.272541,-0.57579 0.752214,-1.75046 0.484316,-1.18604 0.559668,-1.39756 0.992267,-2.78527 0.04477,-0.14361 0.159607,-0.50483 0.255198,-0.8027 0.221362,-0.68978 0.318377,-1.05643 0.445254,-1.68276 0.208218,-1.027894 0.313249,-1.922925 0.313249,-2.669351 0,-0.403257 -0.02568,-0.618244 -0.09295,-0.777974 -0.06143,-0.145869 -0.129318,-0.218006 -0.205171,-0.218006 -0.16544,0 -0.615903,0.347041 -0.991694,0.764011 -0.467888,0.519154 -0.72158,0.871679 -1.127471,1.566712 -0.269059,0.460738 -0.359802,0.635008 -0.669741,1.286258 -0.0886,0.18616 -0.241674,0.48645 -0.340165,0.6673 -0.280889,0.51577 -0.281878,0.51791 -0.872081,1.88585 -0.449729,1.04237 -0.451521,1.04694 -0.739305,1.88586 -0.580671,1.69271 -0.727795,2.22213 -1.024874,3.68789 -0.08912,0.43972 -0.234861,1.11718 -0.323869,1.50547 -0.204465,0.89198 -0.262578,1.23817 -0.352664,2.10096 -0.08377,0.80233 -0.118575,1.82686 -0.0684,2.01353 0.04113,0.15301 0.0089,0.23397 -0.256035,0.64367 -0.323426,0.5001 -1.032963,1.69319 -1.213551,2.0406 -0.08295,0.15957 -0.215737,0.40763 -0.295081,0.55125 -0.07935,0.14361 -0.185769,0.34816 -0.236494,0.45454 -0.05072,0.10638 -0.138547,0.26514 -0.195162,0.35281 -0.05662,0.0877 -0.102942,0.17101 -0.102942,0.18521 0,0.0588 -0.104382,0.10994 -0.22443,0.10994 -0.182462,0 -0.226845,-0.0696 -0.253073,-0.39689 -0.0077,-0.0955 -0.02383,-0.21743 -0.03593,-0.27087 -0.06874,-0.30315 -0.09499,-0.60253 -0.106814,-1.2181 -0.02941,-1.53125 0.189952,-3.57744 0.597185,-5.57053 0.127455,-0.6238 0.21061,-0.97886 0.566211,-2.41777 0.469151,-1.89835 0.553098,-2.18985 0.885671,-3.07539 0.06792,-0.18085 0.219072,-0.58396 0.335895,-0.89581 0.116828,-0.31185 0.28639,-0.73399 0.376809,-0.93809 0.212017,-0.47861 0.382264,-0.91116 0.553347,-1.40591 0.178997,-0.51763 0.365709,-0.96747 0.545874,-1.31518 0.581085,-1.12144 1.446353,-2.547799 1.97127,-3.249559 0.899309,-1.202275 1.471128,-1.791617 2.292521,-2.362782 0.671492,-0.466929 1.386046,-0.768185 1.831759,-0.772273 0.09788,-9.02e-4 0.240698,-0.0083 0.317367,-0.01635 0.0787,-0.0083 0.286106,-0.0047 0.476297,0.0082 0.374593,0.0255 0.454171,0.04881 0.737422,0.215989 0.379819,0.224172 0.667866,0.702278 0.912879,1.515216 0.21618,0.717247 0.285085,1.108285 0.32562,1.847881 0.04704,0.858249 -0.03425,1.587938 -0.374913,3.364818 -0.263447,1.37417 -0.422475,2.10209 -0.579477,2.65244 -0.279273,0.97892 -0.934336,2.67489 -1.444626,3.74013 -0.186006,0.38829 -0.41889,0.87571 -0.517513,1.08316 -0.09863,0.20744 -0.294372,0.58607 -0.434986,0.84138 -0.140615,0.25532 -0.321199,0.59477 -0.401305,0.75435 -0.157818,0.31439 -0.56172,1.0412 -0.783348,1.4096 -0.141152,0.23463 -0.682994,1.22025 -0.766899,1.395 -0.02555,0.0532 -0.124334,0.27812 -0.219548,0.49983 -0.190465,0.44352 -0.383158,0.85977 -0.623737,1.34734 -0.08661,0.17553 -0.244283,0.50629 -0.350396,0.73501 -0.354953,0.76511 -0.821672,1.71241 -1.072075,2.17598 -0.204724,0.37902 -0.613129,1.03093 -0.877028,1.39997 l -0.268053,0.37483 0.04749,0.27313 c 0.09649,0.55508 0.217177,0.83258 0.459454,1.05648 0.359695,0.33244 0.847039,0.36491 1.460718,0.0973 0.306189,-0.13351 0.625025,-0.33955 0.972758,-0.62863 0.616411,-0.51245 1.286135,-1.36837 1.668621,-2.13255 0.03076,-0.0615 0.115588,-0.22925 0.1885,-0.37287 0.07291,-0.14361 0.187693,-0.38732 0.255071,-0.54158 0.120605,-0.2761 0.122747,-0.28481 0.138022,-0.56092 0.07256,-1.31145 0.335642,-2.76605 0.850004,-4.69978 0.868751,-3.26607 1.743703,-5.24184 3.353546,-7.5728 0.532449,-0.77095 1.478541,-1.95342 2.08226,-2.6025 1.320394,-1.4196 3.174664,-2.771344 4.045285,-2.948962 0.212698,-0.04339 0.48256,-0.03265 0.614323,0.02449 0.40841,0.177062 0.749716,0.861992 0.850562,1.706902 0.01591,0.13343 0.02806,0.48014 0.02707,0.77369 -0.0033,0.95866 -0.131213,1.74469 -0.425002,2.61004 -0.235202,0.6928 -0.64195,1.66296 -0.953324,2.27384 -0.20463,0.40146 -0.745323,1.30298 -0.896906,1.49546 -0.07275,0.0924 -0.166649,0.22454 -0.208653,0.29369 -0.129732,0.21355 -0.17496,0.2431 -0.733087,0.47887 -0.550324,0.23248 -0.906381,0.4286 -1.71496,0.94464 -0.288391,0.18405 -0.529995,0.32504 -0.586651,0.34233 -0.02236,0.007 -0.04065,0.0214 -0.04065,0.0324 0,0.0279 -0.193665,0.0251 -0.227695,-0.003 -0.0377,-0.0314 -0.03507,-0.12494 0.0067,-0.23967 0.01903,-0.0522 0.0347,-0.11156 0.03487,-0.13185 3.61e-4,-0.0549 0.219519,-0.49731 0.35056,-0.70777 0.06292,-0.10106 0.183398,-0.33172 0.267725,-0.51257 0.08432,-0.18085 0.223946,-0.46808 0.310267,-0.63829 0.08632,-0.17021 0.201241,-0.41827 0.25537,-0.55125 0.05414,-0.13298 0.148749,-0.35928 0.210245,-0.50289 0.159882,-0.37334 0.466063,-1.19866 0.848556,-2.28727 0.08671,-0.24677 0.317085,-1.0992 0.357755,-1.32374 0.03044,-0.16816 0.03204,-0.33451 0.0037,-0.37198 -0.03204,-0.0421 -0.254698,0.0783 -0.429998,0.23255 -0.573759,0.50496 -1.629143,1.98088 -2.37751,3.32491 -0.739456,1.32801 -1.20773,2.31237 -1.504407,3.16244 -0.425662,1.21964 -0.892053,2.94448 -1.056467,3.9071 -0.03815,0.22341 -0.06922,0.4236 -0.06902,0.44487 2.42e-4,0.0213 0.07109,-0.0745 0.157543,-0.21276 0.775537,-1.24061 1.548569,-2.08542 2.719238,-2.97169 1.059416,-0.80205 2.018081,-1.30053 3.046712,-1.58419 0.609635,-0.16812 1.066644,-0.22121 1.774721,-0.20618 0.527887,0.0112 0.785383,0.0454 1.187812,0.15784 0.552387,0.1543 1.153067,0.51208 1.550644,0.92361 0.579091,0.59941 0.852769,1.15179 1.090464,2.20094 0.03491,0.15406 0.04892,0.31984 0.05805,0.68664 0.01272,0.51066 -0.01346,0.82713 -0.106684,1.28947 -0.02428,0.12057 -0.05629,0.30626 -0.07107,0.41264 -0.03581,0.25752 -0.101987,0.49059 -0.222498,0.78335 -0.153646,0.3733 -0.475583,0.9699 -0.683637,1.26691 -0.06707,0.0958 -0.226403,0.33511 -0.35408,0.53191 -0.25891,0.3991 -0.636018,0.88743 -0.87094,1.12782 -0.08516,0.0871 -0.265412,0.25418 -0.400563,0.3712 -0.135151,0.11702 -0.332282,0.30126 -0.438063,0.40942 -0.258553,0.26436 -0.721999,0.63387 -1.043062,0.83164 -0.300881,0.18535 -0.762152,0.44195 -0.936259,0.52084 -0.138252,0.0626 -0.131197,0.0692 0.120773,0.11252 0.33286,0.0572 0.759056,0.031 1.117545,-0.0688 1.44269,-0.40163 2.79674,-1.15218 4.114862,-2.28088 0.402318,-0.3445 1.01918,-0.92477 1.074503,-1.01076 0.01485,-0.0231 0.04378,-0.25521 0.06429,-0.51584 0.07968,-1.0123 0.344596,-2.40096 0.640539,-3.35757 0.14655,-0.47372 0.275839,-0.81908 0.537465,-1.43575 0.376636,-0.88776 0.547609,-1.22875 0.995828,-1.9861 0.600737,-1.01505 1.246202,-1.80773 1.998277,-2.45403 0.43981,-0.37795 0.789689,-0.60564 1.23333,-0.8026 0.622716,-0.27646 1.299237,-0.40188 1.748768,-0.32421 0.21367,0.0369 0.465082,0.14088 0.595467,0.24622 0.243733,0.19691 0.395414,0.66896 0.395414,1.23055 0,0.79251 -0.352627,2.59702 -0.710644,3.6366 -0.133067,0.38638 -0.574453,1.46232 -0.749199,1.82627 -0.148093,0.30842 -0.446189,0.8674 -0.741118,1.3897 -0.107024,0.18953 -0.769086,1.21647 -0.9335,1.44797 -0.485071,0.68301 -1.168323,1.54358 -1.394659,1.75661 -0.05854,0.0551 -0.142161,0.15817 -0.185831,0.22904 -0.08727,0.14166 -0.145368,0.17426 -0.278923,0.15652 -0.04396,-0.006 -0.101466,-0.0286 -0.127788,-0.0506 -0.04536,-0.0379 -0.04776,-0.0609 -0.04608,-0.44065 0.0012,-0.25259 0.02014,-0.55801 0.05144,-0.82623 0.02732,-0.23404 0.06115,-0.54739 0.07518,-0.69632 0.03708,-0.39363 0.08662,-0.77617 0.137718,-1.0634 0.02465,-0.13853 0.06136,-0.36067 0.08161,-0.49364 0.05406,-0.35508 0.194514,-1.06865 0.246576,-1.2527 0.02806,-0.0992 0.106052,-0.26437 0.205499,-0.4352 0.581093,-0.99821 0.841764,-1.48049 1.006091,-1.86138 0.08579,-0.19887 0.258521,-0.72493 0.242421,-0.73833 -0.01198,-0.01 -0.248811,0.26174 -0.381337,0.43748 -0.139216,0.1846 -0.407942,0.61799 -0.531894,0.85781 -0.227597,0.44035 -0.593719,1.35354 -0.831357,2.07357 -0.273583,0.82894 -0.544467,2.15948 -0.641868,3.15276 -0.03921,0.39973 -0.05487,1.73694 -0.02412,2.05829 0.0455,0.47554 0.140229,0.99975 0.236226,1.30724 0.09616,0.30802 0.184272,0.59746 0.243795,0.80089 0.04831,0.1651 0.13228,0.29843 0.345466,0.54855 0.225939,0.26509 0.370155,0.3844 0.656359,0.54302 0.263911,0.14626 0.416897,0.20642 0.646183,0.25407 0.283079,0.0588 0.643894,0.008 1.164352,-0.1646 0.661598,-0.2192 0.933077,-0.37036 1.442977,-0.80344 0.248528,-0.21109 0.325715,-0.24469 0.377395,-0.1643 0.02908,0.0453 0.03204,0.23767 0.0041,0.26336 -0.0224,0.0205 -0.103997,0.34704 -0.142366,0.56962 -0.01374,0.0798 -0.04498,0.206 -0.06938,0.28046 -0.02441,0.0745 -0.08131,0.28772 -0.126439,0.47389 -0.100534,0.41468 -0.239582,0.80508 -0.36677,1.0298 -0.128965,0.22785 -0.139179,0.23432 -0.348456,0.22081 -0.344576,-0.0222 -0.441143,-0.0442 -0.773634,-0.17626 -0.178898,-0.071 -0.424596,-0.15825 -0.545993,-0.19382 -0.121397,-0.0356 -0.408915,-0.12285 -0.638931,-0.19397 -1.330017,-0.41122 -2.126212,-0.60192 -3.392133,-0.81247 -0.529047,-0.088 -0.836041,-0.1523 -0.884932,-0.18536 -0.0139,-0.009 -0.03864,-0.0542 -0.05494,-0.0995 -0.01633,-0.0453 -0.05983,-0.11101 -0.0967,-0.14597 -0.03688,-0.0349 -0.06704,-0.0761 -0.06704,-0.0915 0,-0.0154 -0.02781,-0.0843 -0.06178,-0.1532 l -0.06177,-0.12523 -0.126204,0.096 c -0.06941,0.0528 -0.252791,0.16646 -0.407508,0.25256 -0.325603,0.18119 -0.254238,0.17485 -0.852928,0.0757 -0.328082,-0.0543 -0.611875,-0.0937 -1.254628,-0.17418 -0.770628,-0.0965 -2.264378,-0.16284 -3.357283,-0.14919 -0.845385,0.0105 -1.134592,0.0289 -1.749018,0.11096 -0.660552,0.0882 -0.811745,0.0745 -1.178438,-0.10693 -0.478697,-0.23685 -0.912395,-0.55023 -1.227317,-0.88681 -0.181343,-0.19381 -0.224327,-0.25041 -0.421655,-0.55519 -0.209909,-0.3242 -0.436984,-0.61232 -0.551547,-0.6998 -0.210758,-0.16093 -0.43522,-0.14187 -0.642959,0.0546 -0.110334,0.10435 -0.115187,0.13639 -0.04073,0.26872 0.107709,0.19141 0.341913,0.33502 0.57704,0.35382 0.133748,0.0107 0.142863,0.0191 0.377453,0.34744 0.08555,0.11974 0.235841,0.31123 0.333992,0.42553 0.232408,0.27065 0.286512,0.3408 0.373469,0.4842 0.08009,0.13208 0.08776,0.18702 0.03954,0.28307 -0.04094,0.0815 -0.143264,0.11546 -0.668698,0.22168 -0.665827,0.1346 -1.218223,0.21394 -1.494276,0.21462 -0.187344,4.1e-4 -0.343025,-0.0629 -0.697014,-0.28369 -0.365397,-0.2279 -0.606472,-0.43924 -0.720891,-0.63197 -0.04826,-0.0813 -0.101728,-0.14779 -0.118829,-0.14779 -0.06491,0 -0.286217,-0.4845 -0.37107,-0.81237 -0.05825,-0.22509 -0.05873,-0.68074 -8.21e-4,-0.90908 0.134195,-0.53035 0.27264,-0.7855 0.608507,-1.12144 0.285799,-0.28587 0.531956,-0.42547 1.006259,-0.57069 0.59655,-0.18264 1.040179,-0.24959 1.65316,-0.24949 0.609106,2e-4 1.01649,0.0809 1.533433,0.30432 0.153872,0.0665 0.311112,0.12029 0.370754,0.12686 0.08083,0.009 0.106339,0.0206 0.116171,0.0534 0.0069,0.0231 0.04396,0.0615 0.0823,0.0854 0.03835,0.0238 0.118936,0.0826 0.179116,0.13057 l 0.109411,0.0872 0.169393,-0.0701 c 0.18526,-0.0767 0.513309,-0.30453 0.705489,-0.49007 0.128493,-0.12406 0.386903,-0.42 0.606041,-0.69408 0.21751,-0.27203 0.435786,-0.60014 0.720576,-1.08315 0.144261,-0.24469 0.333069,-0.54967 0.419567,-0.67776 0.320579,-0.47471 0.75762,-1.46114 0.912817,-2.06028 0.07038,-0.27172 0.08733,-0.70248 0.0354,-0.89931 -0.07473,-0.28317 -0.266245,-0.50625 -0.519441,-0.60506 -0.114042,-0.0445 -0.162265,-0.0516 -0.352816,-0.0516 -0.273981,0 -0.481515,0.0545 -0.840947,0.22093 -0.661319,0.30616 -1.292563,0.73132 -1.998093,1.34578 -0.756225,0.65862 -1.492232,1.51726 -1.944758,2.26878 -0.136718,0.22705 -0.568997,1.06635 -0.698499,1.35619 -0.08414,0.18832 -0.254329,0.49129 -0.284868,0.50714 -0.01296,0.007 -0.09592,0.0182 -0.184349,0.0254 -0.352554,0.0289 -0.968932,0.18301 -1.320665,0.33016 -0.30372,0.12706 -0.645326,0.3709 -0.866269,0.61835 -0.2334,0.2614 -0.464754,0.68275 -0.552408,1.00608 -0.07532,0.27781 -0.06911,0.505 0.02662,0.97364 0.09253,0.45307 0.21353,0.72805 0.512389,1.16446 0.09076,0.13254 0.221263,0.33583 0.290012,0.45177 0.103758,0.17497 0.124998,0.22826 0.124998,0.31363 0,0.20001 -0.169988,0.29055 -0.664391,0.35387 -0.569046,0.0729 -1.542674,0.29967 -2.204982,0.51362 -0.124391,0.0402 -0.189629,0.0504 -0.277426,0.0436 -0.168627,-0.0131 -0.221313,-0.0715 -0.301784,-0.33431 -0.03561,-0.11631 -0.06906,-0.22354 -0.07432,-0.23828 -0.0061,-0.017 -0.09671,0.0435 -0.247249,0.16479 -0.215139,0.1734 -0.599962,0.41233 -0.804879,0.49974 -0.09879,0.0421 -0.84141,0.26766 -1.245033,0.3781 -0.74805,0.20469 -1.480251,0.4394 -1.675409,0.53707 -0.135487,0.0678 -0.365795,0.11105 -0.489669,0.0919 -0.146993,-0.0227 -0.822222,-0.3058 -1.086588,-0.45561 -0.546165,-0.30949 -1.147009,-0.8325 -1.38694,-1.20725 l -0.07417,-0.11585 -0.116721,0.11529 c -0.208916,0.20635 -1.066238,0.90737 -1.292607,1.05695 -0.315378,0.20839 -0.76653,0.46746 -0.985393,0.56584 -0.37712,0.16953 -0.926251,0.32326 -1.465775,0.41033 -0.28244,0.0456 -0.810519,0.0457 -1.086756,2e-4 -0.523888,-0.0863 -1.053457,-0.3077 -1.401018,-0.58576 -0.272783,-0.21824 -0.382572,-0.35478 -0.740729,-0.92122 -0.112668,-0.1782 -0.211262,-0.32395 -0.219092,-0.3239 -0.0078,0 -0.07432,0.098 -0.14774,0.2176 -0.340494,0.55476 -0.927912,1.06579 -1.60513,1.39637 -0.605705,0.29568 -1.303306,0.49944 -1.893382,0.55304 -0.397113,0.036 -0.955064,0.0148 -1.238315,-0.0471 -0.767149,-0.16774 -1.251637,-0.44493 -1.753891,-1.00345 -0.09349,-0.10396 -0.208379,-0.24757 -0.255309,-0.31914 -0.04693,-0.0716 -0.128649,-0.19268 -0.181593,-0.26913 l -0.09627,-0.13901 -0.208412,0.13682 c -0.533494,0.35023 -1.255079,0.69878 -1.965043,0.94917 -0.709865,0.25035 -2.047972,0.57687 -2.913366,0.7109 -1.144142,0.1772 -1.799714,0.22418 -2.67819,0.19193 z m 56.7897,-0.19079 c -0.06389,-0.0189 -0.372321,-0.10635 -0.685398,-0.19439 -0.313076,-0.088 -0.647643,-0.18609 -0.74348,-0.21789 -0.189838,-0.063 -1.047964,-0.30302 -1.256343,-0.35143 -0.178857,-0.0415 -0.216779,-0.0817 -0.217579,-0.23031 -8.2e-4,-0.15199 0.0288,-0.27453 0.136385,-0.56468 0.24594,-0.66319 0.648177,-2.20687 0.909716,-3.49125 0.127526,-0.62627 0.203075,-0.98179 0.384311,-1.80849 0.07697,-0.35106 0.169981,-0.78191 0.206709,-0.95744 0.396043,-1.89274 0.390222,-1.86581 0.49748,-2.30012 0.18003,-0.72896 0.493348,-1.83413 0.691382,-2.4387 0.148933,-0.45467 0.583271,-1.5141 0.800908,-1.95355 0.454269,-0.91727 1.067657,-1.93983 1.641761,-2.73691 0.813213,-1.12907 1.27172,-1.65268 1.930824,-2.20499 0.702568,-0.58873 1.2128,-0.87922 1.999684,-1.13846 0.997625,-0.32867 1.807557,-0.40139 2.46614,-0.2214 0.214855,0.0587 0.459188,0.19687 0.720793,0.40756 0.274424,0.22101 0.400095,0.35889 0.541809,0.59446 0.309335,0.51418 0.427607,1.08286 0.375688,1.80637 -0.05236,0.72973 -0.13942,1.14188 -0.353858,1.67521 -0.341712,0.84988 -0.690061,1.44961 -1.117077,1.9232 -0.42353,0.46971 -1.482232,1.32201 -2.28499,1.83951 -0.178898,0.11533 -0.455964,0.29743 -0.615697,0.40468 -0.475981,0.31957 -1.196606,0.73035 -1.33846,0.76296 -0.04444,0.0102 -0.163409,0.0627 -0.264382,0.11661 -0.118132,0.0631 -0.208899,0.098 -0.254575,0.098 -0.06539,0 -0.07099,-0.005 -0.07099,-0.0665 0,-0.1193 0.271569,-1.18744 0.420761,-1.65497 0.127127,-0.39836 0.497606,-1.29388 0.651975,-1.57592 0.0137,-0.025 0.151681,-0.14344 0.306673,-0.26322 0.332561,-0.25699 0.464492,-0.37519 0.6699,-0.60019 0.253915,-0.27814 0.413476,-0.55732 0.413476,-0.72345 0,-0.0849 -0.05787,-0.1834 -0.107705,-0.1834 -0.149585,0 -0.70025,0.38537 -0.924495,0.64698 -0.350794,0.40925 -1.175009,1.79132 -1.175009,1.97029 0,0.0344 -0.110355,0.33646 -0.245231,0.67132 -0.38164,0.94752 -0.465348,1.20096 -0.820773,2.48503 -0.465439,1.68153 -0.573673,2.12242 -0.906907,3.69435 -0.149355,0.70452 -0.272861,1.22256 -0.361996,1.51835 -0.03044,0.10106 -0.113033,0.397 -0.183508,0.65764 -0.220447,0.81526 -0.393221,1.3927 -0.723415,2.41776 -0.08053,0.25 -0.220996,0.6939 -0.312141,0.98645 -0.09115,0.29255 -0.202369,0.6233 -0.247158,0.735 -0.04479,0.1117 -0.0924,0.24226 -0.10581,0.29013 -0.01411,0.0504 -0.05465,0.11352 -0.09624,0.1499 -0.08436,0.0738 -0.169652,0.08 -0.35316,0.0258 z m -18.761288,-7.33503 c 0,-0.0675 0.05246,-0.11178 0.133592,-0.11273 0.04214,-4.1e-4 0.05228,0.0101 0.05228,0.0544 0,0.0638 -0.06285,0.11905 -0.135422,0.11905 -0.04106,0 -0.05045,-0.0113 -0.05045,-0.0607 z m -20.893473,-8.12139 c -0.242782,-0.0193 -0.473085,-0.0838 -0.687367,-0.19268 -0.660375,-0.33542 -0.660982,-0.33583 -0.884772,-0.60961 -0.273476,-0.33456 -0.399377,-0.58015 -0.525528,-1.02514 -0.105285,-0.37136 -0.125515,-0.50541 -0.125249,-0.82969 2.42e-4,-0.36508 0.0322,-0.48409 0.153618,-0.57282 0.15107,-0.11043 0.411621,-0.0906 0.511196,0.0389 0.02863,0.0373 0.08781,0.10687 0.131496,0.15475 0.04369,0.0479 0.133288,0.16298 0.199116,0.25581 0.282743,0.3987 0.788717,0.68505 1.140135,0.64526 0.210991,-0.0239 0.465061,-0.20074 0.591418,-0.41165 0.0306,-0.0511 0.07886,-0.15693 0.10722,-0.23518 0.0658,-0.18153 0.05387,-0.30915 -0.04826,-0.51629 -0.11193,-0.22701 -0.334829,-0.39559 -0.523075,-0.39559 -0.03343,0 -0.140927,0.0275 -0.238893,0.0612 -0.390673,0.13415 -0.785662,0.0552 -0.979089,-0.19577 -0.123086,-0.15969 -0.168782,-0.30821 -0.169849,-0.55203 -0.0012,-0.23911 0.02392,-0.31208 0.198994,-0.58209 0.232801,-0.359 0.671902,-0.62192 1.260407,-0.75467 0.129162,-0.0291 0.241949,-0.0365 0.556933,-0.0364 0.386308,1.1e-4 0.399787,0.002 0.614212,0.0637 0.332869,0.0965 0.52504,0.18892 0.728493,0.35039 0.22769,0.1807 0.315189,0.28001 0.456382,0.51798 0.206335,0.34776 0.307575,0.70018 0.354042,1.23236 0.0628,0.71938 -0.06418,1.32615 -0.415272,1.9843 -0.228548,0.42844 -0.370762,0.62099 -0.674207,0.91283 -0.474189,0.45604 -0.818785,0.64169 -1.284371,0.69192 -0.19186,0.0207 -0.190199,0.0207 -0.447731,2e-4 z M 22.39626,110.08186 c 0,-0.049 0.009,-0.058 0.05808,-0.058 0.04905,0 0.05808,0.009 0.05808,0.058 0,0.049 -0.009,0.058 -0.05808,0.058 -0.04905,0 -0.05808,-0.009 -0.05808,-0.058 z"
       id="path4529"
       inkscape:connector-curvature="0" />
  </g>
</svg>
