<?xml version="1.0" encoding="UTF-8" standalone="no"?>
<!-- Created with Inkscape (http://www.inkscape.org/) -->

<svg
   xmlns:dc="http://purl.org/dc/elements/1.1/"
   xmlns:cc="http://creativecommons.org/ns#"
   xmlns:rdf="http://www.w3.org/1999/02/22-rdf-syntax-ns#"
   xmlns:svg="http://www.w3.org/2000/svg"
   xmlns="http://www.w3.org/2000/svg"
   xmlns:sodipodi="http://sodipodi.sourceforge.net/DTD/sodipodi-0.dtd"
   xmlns:inkscape="http://www.inkscape.org/namespaces/inkscape"
   width="223.26065mm"
   height="120.4795mm"
   viewBox="0 0 223.26065 120.4795"
   version="1.1"
   id="svg8"
   inkscape:version="0.92.4 (5da689c313, 2019-01-14)"
   sodipodi:docname="logo.svg">
  <defs
     id="defs2" />
  <sodipodi:namedview
     id="base"
     pagecolor="#ffffff"
     bordercolor="#666666"
     borderopacity="1.0"
     inkscape:pageopacity="0.0"
     inkscape:pageshadow="2"
     inkscape:zoom="0.35"
     inkscape:cx="-135.21799"
     inkscape:cy="252.22598"
     inkscape:document-units="mm"
     inkscape:current-layer="layer1"
     showgrid="false"
     fit-margin-top="0"
     fit-margin-left="0"
     fit-margin-right="0"
     fit-margin-bottom="0"
     inkscape:window-width="1920"
     inkscape:window-height="1017"
     inkscape:window-x="-8"
     inkscape:window-y="-8"
     inkscape:window-maximized="1" />
  <metadata
     id="metadata5">
    <rdf:RDF>
      <cc:Work
         rdf:about="">
        <dc:format>image/svg+xml</dc:format>
        <dc:type
           rdf:resource="http://purl.org/dc/dcmitype/StillImage" />
        <dc:title></dc:title>
      </cc:Work>
    </rdf:RDF>
  </metadata>
  <g
     inkscape:label="Layer 1"
     inkscape:groupmode="layer"
     id="layer1"
     transform="translate(5.4229782,-95.088623)">
    <path
       style="fill:#ffffff;stroke-width:0.05168003"
       d="m 116.85703,215.52439 c -0.34268,-0.0182 -1.09943,-0.0358 -1.68166,-0.0391 -2.26872,-0.0129 -5.6354,-0.35446 -8.2133,-0.83337 -2.02694,-0.37656 -6.59728,-1.511 -8.20184,-2.03584 -1.50395,-0.49194 -2.33136,-0.83005 -3.13242,-1.28001 -0.2242,-0.12594 -0.70075,-0.36557 -1.05901,-0.53251 -0.97899,-0.45619 -1.5437,-0.7857 -2.28774,-1.3349 -0.37041,-0.27341 -0.9218,-0.64471 -1.22531,-0.8251 -1.25986,-0.74883 -2.81706,-2.06333 -4.1075,-3.46732 -1.04958,-1.14194 -2.10463,-2.6662 -2.67636,-3.8666 -0.5515,-1.15793 -1.07216,-2.72805 -1.23527,-3.72513 -0.1249,-0.7635 -0.14445,-2.76842 -0.0343,-3.51294 0.20223,-1.36638 0.64107,-2.91483 1.18271,-4.1731 0.21765,-0.50562 1.17285,-2.32481 1.55474,-2.96106 0.7602,-1.26648 1.83916,-2.72928 2.59189,-3.51396 1.8725,-1.95197 3.8685,-3.61703 5.78398,-4.82497 2.29096,-1.44472 4.3017,-2.50039 7.09645,-3.72573 0.5985,-0.26241 1.38385,-0.61089 1.74523,-0.7744 2.30462,-1.04275 5.89746,-2.46039 8.10152,-3.19668 0.95016,-0.3174 2.50245,-0.75547 4.52373,-1.27665 0.8567,-0.22089 2.53894,-0.67929 3.73831,-1.01866 3.45904,-0.97877 4.15474,-1.13865 8.26958,-1.90045 7.64364,-1.4151 10.83708,-1.92934 13.93368,-2.24376 3.74116,-0.37986 5.94624,-0.49376 8.72271,-0.45057 1.9801,0.0308 2.91217,0.0754 4.89945,0.2346 0.77882,0.0624 1.86207,0.13717 2.40724,0.16622 2.73613,0.14579 4.88011,0.50407 8.75103,1.46242 0.40499,0.10026 1.27159,0.2991 1.9258,0.44186 1.36994,0.29895 2.10453,0.48551 3.25685,0.82709 0.45172,0.1339 1.66242,0.44299 2.69045,0.68685 2.59115,0.61465 7.08868,1.88955 10.3653,2.93822 2.37317,0.75951 2.7586,0.89466 6.16362,2.16121 1.85647,0.69056 2.07092,0.76291 3.40871,1.15005 0.56074,0.16228 1.60577,0.49135 2.32228,0.73128 1.53543,0.51415 6.9599,2.20661 8.29181,2.58708 0.51067,0.14589 1.57599,0.41375 2.36736,0.59527 0.79138,0.18152 1.70077,0.39126 2.02087,0.46608 1.30118,0.30417 2.5655,0.45729 4.31225,0.52225 1.54071,0.0573 2.8106,0.005 2.97952,-0.12194 0.15273,-0.11507 0.57115,-0.11791 0.84375,-0.006 0.30793,0.12671 0.44991,0.54905 0.51859,1.54264 0.13261,1.91862 0.0683,2.90043 -0.22095,3.37148 -0.33555,0.5465 -0.45084,0.6397 -1.15277,0.93184 -2.01078,0.83685 -4.64127,1.15381 -8.54171,1.02923 -1.89881,-0.0607 -2.44393,-0.0979 -3.88547,-0.26569 -4.68838,-0.5456 -8.20695,-1.37266 -12.48934,-2.93568 -1.98037,-0.72281 -4.13359,-1.58097 -4.58149,-1.82591 -0.11257,-0.0616 -0.32783,-0.13909 -0.47835,-0.17227 -0.23486,-0.0518 -0.28036,-0.0504 -0.32071,0.01 -0.0258,0.0385 -0.20856,0.23257 -0.40601,0.43133 -0.19744,0.19876 -0.49706,0.54878 -0.66583,0.77784 -0.93432,1.26809 -1.43024,1.81647 -3.85199,4.25948 -1.47632,1.48929 -1.66624,1.66692 -2.94939,2.75849 -0.60973,0.51869 -1.34925,1.16587 -1.64339,1.43818 -0.29414,0.27231 -0.8933,0.8134 -1.33148,1.20242 -0.43818,0.38902 -1.10464,0.99436 -1.48104,1.34521 -1.03933,0.96878 -3.06143,2.57798 -5.6264,4.47753 -1.48146,1.09713 -4.05058,2.86799 -5.26762,3.63089 -0.26479,0.16599 -0.77456,0.49498 -1.13281,0.73109 -1.89682,1.25011 -3.54627,2.24925 -5.63578,3.41381 -1.27726,0.71186 -2.65363,1.48031 -3.05861,1.70767 -0.85143,0.47797 -3.61819,1.66596 -5.52565,2.37258 -0.67151,0.24877 -1.47439,0.56989 -1.78419,0.71359 -1.16384,0.53989 -2.08312,0.86879 -4.01836,1.43766 -0.68536,0.20146 -1.73038,0.51875 -2.32228,0.70509 -2.64569,0.8329 -3.70912,1.17086 -4.89945,1.55709 -1.2771,0.41438 -3.03088,0.90198 -3.8799,1.07873 -0.42789,0.0891 -1.74157,0.31341 -2.49509,0.42608 -0.80099,0.11977 -3.23249,0.37786 -3.99038,0.42355 -0.90065,0.0543 -5.2588,0.15306 -6.11715,0.13863 -0.29595,-0.005 -0.81846,-0.024 -1.16114,-0.0422 z m 0.90625,-8.10554 c 2.2242,-0.21905 5.31844,-0.68675 9.34577,-1.41261 4.77011,-0.85974 6.28054,-1.17529 9.08761,-1.89856 2.5183,-0.64886 4.64869,-1.40797 8.07233,-2.87638 3.97875,-1.70649 4.92218,-2.19177 8.78163,-4.51704 1.59657,-0.96192 1.96335,-1.21081 3.82852,-2.59794 1.21961,-0.90703 2.24762,-1.64629 3.93129,-2.82705 0.71651,-0.50248 1.4047,-0.99145 1.5293,-1.08658 0.80099,-0.61153 1.67862,-1.26817 2.26564,-1.69515 0.90398,-0.65751 1.74991,-1.30305 2.41624,-1.84384 1.1497,-0.9331 4.2992,-3.63076 4.94791,-4.23805 0.37338,-0.34955 1.13056,-1.04583 1.68262,-1.54729 1.04491,-0.94914 1.80342,-1.71103 2.69084,-2.70282 0.28747,-0.32129 0.62415,-0.68131 0.74816,-0.80003 l 0.22547,-0.21587 -1.17297,-0.47878 c -1.85179,-0.75587 -5.34864,-1.94338 -7.44133,-2.52704 -5.05856,-1.41085 -6.90882,-1.82756 -12.56476,-2.82984 -3.10266,-0.54981 -5.07386,-0.80341 -8.09966,-1.04205 -0.51402,-0.0405 -1.34239,-0.10567 -1.84083,-0.14475 -2.85455,-0.22377 -6.73046,-0.15606 -9.9405,0.17367 -2.69069,0.27638 -7.4238,1.03181 -10.19537,1.62722 -1.64795,0.35404 -3.74716,0.85191 -4.63121,1.09839 -1.01792,0.28381 -4.18348,1.29049 -5.42257,1.72442 -4.43334,1.55259 -5.76106,2.12636 -8.63775,3.73279 -4.10731,2.29364 -5.37783,3.07201 -7.06024,4.32535 -1.04963,0.78194 -2.18704,1.7557 -2.6201,2.24312 -0.63882,0.71903 -1.71817,2.33021 -2.1027,3.13879 -0.24229,0.50946 -0.87781,2.01887 -1.07938,2.56359 -0.22385,0.60492 -0.4844,1.74469 -0.56606,2.47616 -0.0946,0.84729 -0.0383,2.57428 0.11618,3.56578 0.20021,1.28488 0.35663,1.84908 0.6471,2.3341 0.46645,0.77889 1.66342,2.19814 2.44151,2.8949 0.48634,0.43552 1.49708,1.14485 2.12403,1.49064 0.69779,0.38486 2.85238,1.42183 3.62103,1.74276 0.32983,0.13771 1.03278,0.39398 1.5621,0.5695 2.8252,0.93678 5.59352,1.47896 8.52399,1.66942 1.10791,0.072 3.62738,0.0252 4.78616,-0.0889 z m 58.87831,-14.92695 c 0,-0.0943 0.0283,-0.11788 0.1416,-0.11788 0.11328,0 0.1416,0.0236 0.1416,0.11788 0,0.0943 -0.0283,0.11789 -0.1416,0.11789 -0.11329,0 -0.1416,-0.0236 -0.1416,-0.11789 z m 0.2832,-0.28292 c 0,-0.0943 0.0283,-0.11788 0.1416,-0.11788 0.11328,0 0.1416,0.0236 0.1416,0.11788 0,0.0943 -0.0283,0.11789 -0.1416,0.11789 -0.11328,0 -0.1416,-0.0236 -0.1416,-0.11789 z m 0.2832,-0.28292 c 0,-0.0943 0.0283,-0.11788 0.14161,-0.11788 0.11328,0 0.1416,0.0236 0.1416,0.11788 0,0.0943 -0.0283,0.11788 -0.1416,0.11788 -0.11329,0 -0.14161,-0.0236 -0.14161,-0.11788 z m 0.29321,-0.29124 c 0.0146,-0.10651 0.0503,-0.13619 0.17824,-0.1484 0.14548,-0.0139 0.15828,-0.003 0.14161,0.11789 -0.0147,0.10651 -0.0503,0.13619 -0.17825,0.14839 -0.14548,0.0139 -0.15827,0.003 -0.1416,-0.11788 z m 0.33984,-0.33008 c 0.0132,-0.0963 0.0536,-0.1373 0.14577,-0.14821 0.0922,-0.0109 0.12744,-0.0467 0.12744,-0.12967 0,-0.0908 0.0294,-0.1146 0.1416,-0.1146 0.11329,0 0.14161,0.0236 0.14161,0.11788 0,0.0851 -0.0305,0.11789 -0.10953,0.11789 -0.0774,0 -0.11477,0.0381 -0.12744,0.12967 -0.0142,0.10279 -0.0511,0.13283 -0.17785,0.14493 -0.14547,0.0139 -0.15827,0.003 -0.1416,-0.11789 z m 0.55642,-0.55752 c 0,-0.0943 0.0283,-0.11788 0.1416,-0.11788 0.11328,0 0.1416,0.0236 0.1416,0.11788 0,0.0943 -0.0283,0.11788 -0.1416,0.11788 -0.11329,0 -0.1416,-0.0236 -0.1416,-0.11788 z M 14.81829,174.56873 c -3.11461,-0.22479 -4.51338,-0.3722 -6.24191,-0.65784 -1.89963,-0.31391 -2.9658,-0.60021 -4.20835,-1.13007 -2.09224,-0.89218 -4.25319,-2.16526 -5.53158,-3.25879 -1.60017,-1.3688 -2.77511,-3.08132 -3.44128,-5.01578 -0.51115,-1.48436 -0.70927,-2.60799 -0.77735,-4.40886 -0.0845,-2.23544 -0.0358,-4.17252 0.12809,-5.09259 0.34317,-1.92669 1.32782,-4.75624 2.2595,-6.49299 0.64641,-1.20499 2.0285,-3.20973 2.34036,-3.39473 0.0572,-0.0339 0.27698,-0.28448 0.48842,-0.5568 0.68313,-0.87979 1.34342,-1.5647 2.18295,-2.26433 0.8036,-0.6697 1.72817,-1.33413 2.29425,-1.64876 0.15576,-0.0866 0.29409,-0.16479 0.3074,-0.17383 0.0133,-0.009 -0.0418,-0.0746 -0.12253,-0.1456 -0.22624,-0.19919 -0.28993,-0.47562 -0.29055,-1.26087 -5.9e-4,-0.58558 0.021,-0.77222 0.12466,-1.08453 0.15886,-0.47859 0.37587,-0.86442 0.73312,-1.30348 0.52713,-0.64784 0.94506,-0.91504 2.24573,-1.43573 1.50357,-0.60193 2.61718,-0.72384 4.87527,-0.53374 0.31152,0.0262 0.7787,0.0891 1.03817,0.13961 0.25947,0.0506 0.48799,0.0919 0.50783,0.0919 0.0198,0 -0.0925,-0.1114 -0.24956,-0.24756 -0.1571,-0.13615 -0.46207,-0.42791 -0.67772,-0.64836 -1.75742,-1.79645 -2.53586,-2.42464 -3.81223,-3.0764 -0.50318,-0.25695 -2.07001,-0.92492 -2.67703,-1.14128 -0.56744,-0.20225 -0.7096,-0.3092 -0.75626,-0.56893 -0.0485,-0.27025 0.10338,-0.49174 0.39629,-0.57776 0.31051,-0.0912 1.23855,-0.0437 2.01721,0.10332 1.05371,0.19889 2.6118,0.77454 4.14188,1.53025 0.79461,0.39246 1.96562,1.20553 3.80217,2.63998 0.88472,0.69102 0.96456,0.69249 0.98124,0.0181 0.0363,-1.46787 0.56576,-2.75627 1.48718,-3.61904 0.41736,-0.39079 0.49482,-0.4403 0.97862,-0.62544 0.95063,-0.36381 3.1719,-0.90013 4.1449,-1.00079 0.47559,-0.0492 3.07551,0.003 3.71549,0.0745 0.49076,0.0549 0.62305,0.16383 0.62305,0.51309 0,0.44171 -0.0786,0.48034 -1.49042,0.73213 -1.61424,0.2879 -3.79067,1.00337 -4.92036,1.61749 -0.38929,0.21162 -0.46295,0.27566 -0.64043,0.55684 -0.19679,0.31176 -0.27015,0.58869 -0.39834,1.50363 l -0.0363,0.25934 0.69849,0.0823 c 0.38417,0.0453 0.74946,0.0937 0.81177,0.10756 0.0845,0.0189 0.14826,-0.0179 0.25116,-0.14504 0.19559,-0.24159 0.85435,-0.78001 1.29767,-1.06062 0.37509,-0.23742 1.25294,-0.61962 1.79298,-0.78065 0.24272,-0.0724 0.48161,-0.0845 1.67091,-0.085 1.22483,-4.9e-4 1.45751,0.0118 1.98244,0.10517 1.16219,0.20664 2.01899,0.46185 4.20923,1.2538 1.84777,0.66812 1.79471,0.6379 1.79471,1.02226 0,0.2286 -0.0204,0.28487 -0.12588,0.34634 -0.18025,0.10511 -0.64861,0.0928 -1.58955,-0.0417 -1.84837,-0.2642 -4.20649,-0.35218 -5.40048,-0.20148 -0.83755,0.10571 -1.27548,0.30772 -2.25407,1.03974 l -0.42342,0.31674 0.14431,0.17556 c 0.24913,0.30307 0.59601,0.91211 0.79221,1.39095 0.2805,0.68458 0.37739,1.23933 0.35182,2.01443 l -0.0215,0.65249 0.65243,0.21339 c 0.94693,0.3097 1.04122,0.32457 1.70056,0.26824 0.88538,-0.0756 1.31032,-0.1755 2.00071,-0.47017 0.85407,-0.36452 1.53054,-0.71886 2.36899,-1.24087 0.81252,-0.50586 2.38518,-1.5837 3.12989,-2.14509 0.48758,-0.36756 0.52872,-0.38816 0.77695,-0.38902 0.35441,-0.001 0.41302,0.0669 0.3731,0.43334 -0.0606,0.55661 -0.6463,1.3836 -1.75109,2.47258 -0.36451,0.3593 -0.91406,0.91863 -1.22121,1.24296 -0.70051,0.73969 -1.71501,1.69927 -2.11536,2.00087 -0.71687,0.54003 -1.51363,0.83668 -3.19408,1.18919 -1.00736,0.21132 -1.12146,0.22561 -1.78419,0.22337 -0.79923,-0.003 -1.18301,-0.0723 -2.16106,-0.39192 -0.31908,-0.10428 -0.58799,-0.18308 -0.59756,-0.17511 -0.01,0.008 0.12444,0.20358 0.29781,0.43469 0.3469,0.46242 1.2553,1.26598 1.64999,1.45957 0.80865,0.39663 1.79579,0.31239 3.2747,-0.27943 1.02479,-0.41011 2.98895,-1.40218 3.37178,-1.70305 0.17225,-0.13536 0.40164,-0.2839 0.50977,-0.33008 0.10813,-0.0462 0.26865,-0.13403 0.35671,-0.19521 0.17096,-0.11879 0.37365,-0.14174 0.55163,-0.0624 0.20048,0.0893 0.11107,0.60517 -0.19179,1.10645 -0.19158,0.31709 -0.81038,0.89046 -1.83246,1.69792 -1.33903,1.05786 -1.76157,1.34959 -2.4681,1.70408 -1.32283,0.66368 -2.16428,0.9097 -3.24287,0.94813 -0.56256,0.02 -0.66577,0.0102 -1.06303,-0.10095 -0.58587,-0.16397 -1.36623,-0.49437 -1.99335,-0.84396 -0.63781,-0.35555 -1.71841,-1.15671 -2.35284,-1.74439 l -0.48144,-0.44598 -0.0395,0.26492 c -0.0217,0.1457 -0.0647,0.55137 -0.0955,0.90149 -0.0546,0.62155 -0.11525,0.8628 -0.45309,1.80302 -0.1989,0.55356 -0.35522,0.78326 -0.75282,1.10621 -0.68329,0.55502 -1.59528,1.06108 -3.48435,1.93346 -2.24427,1.03641 -2.8429,1.25322 -3.52934,1.27823 -0.42628,0.0155 -0.49933,0.006 -0.63721,-0.0844 -0.13841,-0.0906 -0.15573,-0.1329 -0.15573,-0.37984 0,-0.23924 0.0228,-0.29947 0.16394,-0.43331 0.0902,-0.0855 0.38966,-0.25991 0.66554,-0.3876 0.85306,-0.39482 2.12475,-1.1451 2.87462,-1.69599 0.56782,-0.41714 1.90757,-1.62895 1.99684,-1.80615 0.0568,-0.11273 0.076,-0.42787 0.0747,-1.22599 l -0.002,-1.07426 -0.26725,0.42651 c -0.42142,0.67252 -0.86706,1.10721 -1.71161,1.66957 -1.02951,0.68551 -1.44957,0.82161 -2.52052,0.81664 -0.49303,-0.002 -0.79811,-0.0294 -1.11088,-0.0987 -0.7225,-0.16007 -1.60339,-0.45832 -2.15768,-0.73054 -1.7206,-0.84502 -2.73832,-1.71808 -2.90725,-2.49399 l -0.038,-0.17474 -0.14993,0.0786 c -0.57891,0.30362 -1.5507,0.97953 -2.00635,1.39548 -0.80932,0.73882 -1.05034,1.02345 -1.98248,2.34114 -0.15594,0.22045 -0.36916,0.48927 -0.47382,0.59739 -0.13904,0.14362 -0.29548,0.44848 -0.58076,1.13168 -0.37576,0.89991 -0.6076,1.43499 -1.28366,2.96271 -0.45449,1.02704 -1.03071,2.65209 -1.15963,3.27038 -0.0614,0.29452 -0.14018,0.95231 -0.17506,1.46177 -0.15162,2.21499 0.15002,4.06092 0.94787,5.80051 0.67016,1.46119 1.60373,2.90834 2.43751,3.77846 0.88046,0.91883 2.5808,2.22883 3.43786,2.64864 0.43311,0.21215 1.40327,0.5808 1.79309,0.68135 0.92012,0.23735 2.44831,0.42923 3.96486,0.49784 1.19172,0.0539 1.24507,0.0523 2.49221,-0.0752 1.59751,-0.1633 2.12869,-0.23778 3.82327,-0.53606 0.74766,-0.13161 1.63975,-0.26958 1.98243,-0.3066 0.54461,-0.0588 0.80489,-0.12418 2.0674,-0.51901 3.06693,-0.95912 4.01148,-1.3363 6.3596,-2.5395 2.03968,-1.04516 4.04603,-2.19627 5.42172,-3.11063 0.2648,-0.176 0.5492,-0.36345 0.63201,-0.41657 0.11276,-0.0723 0.23471,-0.0966 0.48573,-0.0966 0.28713,0 0.35487,0.0174 0.4725,0.12173 0.12769,0.1132 0.13763,0.15863 0.14193,0.64836 0.007,0.8481 0.19538,1.42578 0.82385,2.53249 0.40492,0.71304 0.45742,0.90599 0.32956,1.21132 -0.0637,0.15222 -0.35219,0.36862 -0.67658,0.50759 -0.10904,0.0467 -0.35118,0.19474 -0.53809,0.32895 -0.80176,0.57572 -1.86966,1.17503 -3.82327,2.14562 -1.95359,0.9706 -5.70749,2.52893 -7.1934,2.98616 -1.71995,0.52924 -4.2814,1.06311 -6.17387,1.28679 -0.56679,0.067 -2.85607,0.12445 -3.39846,0.0853 z m -2.20586,-30.08877 c 0.63128,-0.25897 1.42676,-0.95113 1.99377,-1.73483 l 0.20451,-0.28265 -0.40723,-0.33902 c -0.22398,-0.18646 -0.52176,-0.48871 -0.66174,-0.67167 -0.23877,-0.31209 -0.26522,-0.33121 -0.42762,-0.30919 -0.22226,0.0301 -1.46574,0.35383 -1.97473,0.51405 -0.49505,0.15584 -2.3517,0.92524 -2.96201,1.22746 l -0.46215,0.22886 0.56958,0.45253 c 0.59381,0.47176 0.85372,0.61089 1.59491,0.85374 0.54597,0.17888 0.92604,0.23031 1.62486,0.21985 0.48213,-0.007 0.57886,-0.0242 0.90785,-0.15913 z m -5.94609,-4.91132 c 1.31391,-0.47746 3.28267,-1.01456 4.86678,-1.32773 0.42056,-0.0831 0.89209,-0.17654 1.04785,-0.20753 0.24305,-0.0484 0.28571,-0.074 0.30085,-0.18093 0.0146,-0.10321 -0.0194,-0.14024 -0.19824,-0.216 -0.33703,-0.14273 -0.95129,-0.28739 -1.63548,-0.38514 -0.67047,-0.0958 -1.01285,-0.0811 -1.74938,0.0751 -0.46518,0.0987 -1.18463,0.3926 -1.56878,0.64094 -0.50204,0.32454 -1.51045,1.31824 -1.79767,1.77145 -0.037,0.0583 -0.058,0.10609 -0.0467,0.10609 0.0113,0 0.36264,-0.12432 0.78081,-0.27628 z m 43.96201,31.34814 c -2.15017,-0.0789 -3.72977,-0.30206 -5.11064,-0.72193 -2.04616,-0.62216 -3.25628,-1.14547 -4.36136,-1.88606 -0.88298,-0.59174 -2.37501,-1.94386 -2.98017,-2.70071 -0.56143,-0.70216 -1.13577,-1.8558 -1.46939,-2.95149 -0.17922,-0.58857 -0.47822,-2.30297 -0.47816,-2.74162 6e-5,-0.48882 0.10432,-1.32988 0.20534,-1.65657 0.13885,-0.44908 0.79596,-1.80515 1.06247,-2.19264 0.13378,-0.19451 0.2712,-0.4219 0.30538,-0.50532 0.21388,-0.52206 1.36645,-1.82565 2.66994,-3.0198 1.09781,-1.00573 3.24127,-2.41477 4.73442,-3.11224 1.46501,-0.68433 2.9359,-1.04696 5.04105,-1.24282 2.43213,-0.22628 4.0955,-0.15257 6.05843,0.26849 2.76585,0.59328 6.2063,2.01914 8.30006,3.43987 1.11405,0.75595 1.56497,1.17179 1.69467,1.56285 0.0307,0.0925 0.10076,0.20953 0.15576,0.26012 0.21182,0.19485 0.14873,1.59785 -0.095,2.11308 -0.0552,0.11671 -0.26954,0.49842 -0.47627,0.84825 -0.53379,0.90326 -0.90077,1.18574 -1.44161,1.10968 -0.2826,-0.0398 -0.60074,-0.26188 -0.76812,-0.53631 -0.15321,-0.25121 -1.08187,-1.35252 -1.37766,-1.63381 -1.17064,-1.11324 -2.31208,-1.85358 -3.77839,-2.45066 -2.46937,-1.00554 -4.3417,-1.22486 -6.85584,-0.80309 -2.65364,0.44518 -4.4537,1.30084 -6.11197,2.90531 -2.30925,2.23434 -3.14533,4.78604 -2.2701,6.92831 0.46994,1.15023 1.5325,2.04269 3.28438,2.7586 1.85665,0.75871 4.00747,1.00589 6.51372,0.7486 2.10002,-0.21559 4.32711,-0.69898 5.57913,-1.21094 1.0587,-0.43291 3.69996,-1.96299 4.85427,-2.81209 1.66086,-1.22171 3.37567,-3.24062 4.25259,-5.00673 0.2584,-0.52044 0.78055,-2.0664 0.88265,-2.61338 0.30556,-1.63695 0.39189,-4.30775 0.18748,-5.79989 -0.23387,-1.70704 -0.52245,-2.84036 -1.05058,-4.12594 -1.42494,-3.46849 -1.94767,-4.60304 -2.66685,-5.7881 l -0.23608,-0.38902 h -0.24921 c -0.13707,0 -0.4987,-0.0412 -0.80362,-0.0915 -2.11476,-0.34903 -2.9473,-0.43695 -4.11021,-0.43402 -1.05308,0.003 -1.82487,0.061 -2.66936,0.20169 -1.80091,0.3001 -3.19177,0.7107 -4.36729,1.28927 -1.17731,0.57946 -2.9413,2.04463 -4.03217,3.34912 -0.23856,0.28528 -0.55028,0.65596 -0.6927,0.82374 -0.34606,0.40768 -0.52184,0.67597 -0.86596,1.32174 -0.36314,0.68147 -0.70134,1.43509 -0.83492,1.86043 -0.10827,0.34479 -0.24339,0.48274 -0.59776,0.61026 -0.0938,0.0338 -0.45131,0.22953 -0.79445,0.43505 -0.34315,0.20553 -0.75069,0.4351 -0.90564,0.51016 -0.80964,0.39222 -2.32866,1.40105 -3.48666,2.31559 -0.11612,0.0917 -0.20612,0.11556 -0.43608,0.11556 -0.26749,0 -0.30197,-0.0134 -0.44841,-0.17381 l -0.15865,-0.1738 0.0128,-0.93933 c 0.0112,-0.82266 0.0308,-1.00146 0.15764,-1.43969 0.0797,-0.27521 0.17022,-0.71325 0.20124,-0.97342 0.11903,-0.99854 0.3243,-1.71995 0.85242,-2.99576 0.32943,-0.79584 1.44562,-2.47062 2.27843,-3.41864 0.53133,-0.60483 1.86141,-1.97478 2.35444,-2.42499 1.53215,-1.39913 3.99832,-2.88856 6.22755,-3.76109 2.01762,-0.78972 3.97609,-1.34282 5.6441,-1.59399 0.28038,-0.0422 0.70093,-0.11647 0.93458,-0.165 1.09757,-0.22798 1.28128,-0.24386 2.97365,-0.25704 l 1.64259,-0.0128 0.0358,-0.13637 c 0.0197,-0.075 0.0388,-0.37034 0.0425,-0.6563 0.008,-0.64196 0.09,-1.21521 0.23558,-1.65215 0.13331,-0.40014 0.13593,-0.44495 0.026,-0.44495 -0.13108,0 -0.10629,-0.30387 0.0425,-0.52077 0.081,-0.11803 0.16877,-0.18612 0.24073,-0.18668 0.0888,-7.3e-4 0.14785,-0.0777 0.27323,-0.35612 0.33474,-0.74349 1.65001,-1.97362 3.05044,-2.853 0.94872,-0.59574 2.5473,-1.17031 3.92637,-1.41126 0.72873,-0.12731 1.99993,-0.17483 2.62892,-0.0983 1.25723,0.15305 2.24186,0.6113 3.06363,1.42586 0.54155,0.5368 1.06608,1.4868 1.27568,2.31041 0.1468,0.57689 0.20576,1.50506 0.14107,2.22077 -0.0733,0.8111 -0.16652,1.19771 -0.45911,1.90411 -0.46586,1.12475 -0.72296,1.61332 -1.20741,2.2945 -0.14388,0.20231 -0.34789,0.50999 -0.45335,0.68373 -0.10545,0.17374 -0.27399,0.37954 -0.37451,0.45735 -0.10052,0.0778 -0.24968,0.20327 -0.33145,0.27882 -0.62529,0.5777 -1.28486,1.14532 -1.38633,1.19306 -0.1626,0.0765 -0.66331,0.0733 -0.78726,-0.005 -0.0545,-0.0345 -0.0991,-0.0937 -0.0991,-0.13178 0,-0.038 -0.2043,-0.4672 -0.454,-0.95371 -0.2497,-0.48652 -0.50671,-1.05781 -0.57112,-1.26955 -0.0644,-0.21173 -0.1889,-0.57594 -0.27662,-0.80935 -0.43809,-1.16563 -0.44401,-1.67685 -0.0295,-2.54629 0.14838,-0.31121 0.29667,-0.69625 0.32954,-0.85564 0.0587,-0.28475 0.0564,-0.29438 -0.13262,-0.55405 -0.10582,-0.14534 -0.21655,-0.26426 -0.24608,-0.26426 -0.0953,0 -0.64753,0.37117 -0.78827,0.52981 -0.21276,0.23981 -0.33251,0.5464 -0.36504,0.93464 -0.0487,0.58152 0.0942,1.04465 0.94184,3.0516 0.1892,0.44797 0.39676,0.98655 0.46126,1.19685 0.0645,0.2103 0.2582,0.68193 0.43045,1.04808 0.17225,0.36614 0.47497,1.04765 0.67274,1.51447 0.19775,0.46682 0.50133,1.18392 0.67461,1.59355 0.17328,0.40962 0.4417,1.10985 0.59648,1.55606 0.15479,0.44621 0.45921,1.24629 0.6765,1.77794 0.21729,0.53166 0.48645,1.26372 0.59812,1.6268 0.11168,0.36309 0.39188,1.13758 0.62268,1.72111 0.7442,1.88156 1.04159,3.08092 1.22596,4.94428 0.0826,0.83431 0.0356,2.59689 -0.0893,3.35475 -0.31414,1.90546 -0.5517,2.71981 -1.27239,4.36171 -0.69821,1.5907 -0.7118,1.61878 -1.08985,2.25217 l -0.33104,0.55464 0.39716,0.4928 c 0.50217,0.62311 1.15249,1.26639 1.52637,1.50989 0.51535,0.33561 1.31961,0.47521 2.05412,0.35653 0.34997,-0.0565 1.2985,-0.42263 2.08495,-0.80469 1.77708,-0.8633 3.32963,-2.46559 5.61947,-5.79953 1.13839,-1.65745 2.59583,-4.40634 3.45005,-6.50719 0.46177,-1.13566 1.28282,-3.41477 1.57131,-4.36171 0.12211,-0.40083 0.56012,-2.41849 0.72166,-3.32433 0.11579,-0.64931 0.13028,-1.33787 0.0321,-1.52799 l -0.0707,-0.13696 -0.17376,0.13696 c -0.29544,0.23287 -0.64119,0.67415 -1.08634,1.38653 -0.50638,0.81035 -0.62456,1.05339 -0.99968,2.05576 -0.33509,0.89538 -0.66435,2.01719 -1.10584,3.76771 -0.17661,0.70023 -0.35993,1.38985 -0.40738,1.53249 -0.0902,0.27107 -0.77732,1.59473 -1.57887,3.04141 -0.25865,0.46682 -0.59952,1.11965 -0.75749,1.45073 -0.43647,0.91479 -0.76898,1.48057 -0.90604,1.54163 -0.067,0.0299 -0.22901,0.0478 -0.35998,0.0399 -0.30066,-0.0182 -0.36282,-0.11465 -0.44066,-0.68386 -0.0312,-0.22829 -0.0938,-0.66971 -0.13896,-0.98092 -0.2306,-1.58738 -0.34366,-4.09552 -0.25719,-5.70559 0.12528,-2.33278 0.26327,-3.10613 0.97404,-5.45878 0.73128,-2.42056 1.84419,-4.5292 3.16645,-5.99954 0.98208,-1.09206 2.2224,-1.75672 3.78189,-2.02662 0.87365,-0.1512 1.6712,-0.0506 2.59251,0.32684 0.7974,0.32673 1.72658,1.0429 2.19712,1.69342 0.2538,0.35087 0.41859,0.74661 0.76843,1.84535 0.52107,1.63647 0.64661,2.64548 0.65122,5.23405 0.004,2.10797 -0.0149,2.28395 -0.47878,4.50317 -0.44762,2.14169 -0.70484,3.04352 -1.37906,4.8351 -0.55052,1.46286 -0.65197,1.69457 -1.11414,2.54443 -0.21154,0.38902 -0.52513,0.98476 -0.69684,1.32386 -0.17172,0.33911 -0.37398,0.71045 -0.44947,0.82519 -0.0755,0.11475 -0.2927,0.45265 -0.48269,0.7509 -0.18999,0.29825 -0.38079,0.58215 -0.42401,0.63091 -0.0676,0.0762 -0.0643,0.13869 0.0236,0.44577 0.0562,0.19642 0.14344,0.44299 0.19384,0.54793 0.21308,0.44364 1.02816,1.30666 1.32396,1.40184 0.61499,0.19786 1.81564,-0.19911 3.34531,-1.10607 0.66735,-0.39568 0.89225,-0.56926 1.78585,-1.37834 0.77834,-0.70472 1.07354,-1.01356 1.96031,-2.05096 1.6071,-1.88008 2.90763,-3.5521 4.43789,-5.70558 0.28565,-0.40198 0.73745,-1.02812 1.00399,-1.39142 0.72482,-0.98792 1.18141,-1.68433 2.17931,-3.32394 1.11496,-1.83197 1.28159,-2.13224 2.00197,-3.60749 1.45802,-2.98591 1.77542,-3.65836 2.23666,-4.73869 0.27128,-0.6354 0.75962,-1.72818 1.08521,-2.42841 0.32558,-0.70023 0.85523,-1.8779 1.17698,-2.61703 0.32177,-0.73913 0.85859,-1.9274 1.19294,-2.6406 0.33436,-0.7132 0.7171,-1.55135 0.85055,-1.86256 0.29316,-0.68373 0.47355,-1.07463 1.17498,-2.5463 0.62207,-1.30514 0.66442,-1.40371 1.8338,-4.2674 1.1807,-2.8914 1.3644,-3.40705 2.41902,-6.79011 0.10914,-0.35012 0.3891,-1.23071 0.62214,-1.95688 0.53965,-1.6816 0.77616,-2.57544 1.08547,-4.10236 0.50761,-2.50587 0.76366,-4.68784 0.76366,-6.50753 0,-0.98309 -0.0626,-1.5072 -0.2266,-1.8966 -0.14975,-0.35561 -0.31526,-0.53147 -0.50018,-0.53147 -0.40332,0 -1.50149,0.84604 -2.41762,1.86256 -1.14065,1.26563 -1.75912,2.12504 -2.74863,3.81944 -0.65593,1.12321 -0.87715,1.54806 -1.63274,3.13572 -0.216,0.45385 -0.58917,1.18591 -0.82928,1.6268 -0.68477,1.25739 -0.68718,1.2626 -2.12602,4.59747 -1.09638,2.54116 -1.10075,2.55229 -1.80233,4.59748 -1.4156,4.12661 -1.77427,5.41725 -2.49851,8.99059 -0.21726,1.07197 -0.57256,2.72354 -0.78955,3.67014 -0.49846,2.17454 -0.64013,3.01849 -0.85975,5.12188 -0.20423,1.95597 -0.28907,4.45364 -0.16674,4.90872 0.10028,0.37302 0.0217,0.57038 -0.62418,1.56918 -0.78847,1.21918 -2.51823,4.12777 -2.95848,4.97471 -0.20222,0.38902 -0.52594,0.99376 -0.71937,1.34388 -0.19344,0.35011 -0.45288,0.84876 -0.57654,1.10811 -0.12365,0.25934 -0.33776,0.64639 -0.47578,0.8601 -0.13803,0.21371 -0.25096,0.4169 -0.25096,0.45153 0,0.14336 -0.25447,0.26801 -0.54713,0.26801 -0.44482,0 -0.55302,-0.16969 -0.61696,-0.96756 -0.0187,-0.23291 -0.0581,-0.53006 -0.0876,-0.66034 -0.16758,-0.73904 -0.23158,-1.46889 -0.2604,-2.96957 -0.0717,-3.73299 0.46308,-8.72135 1.45586,-13.58024 0.31072,-1.52075 0.51344,-2.38634 1.38035,-5.8942 1.14373,-4.62794 1.34838,-5.33859 2.15915,-7.49742 0.16558,-0.44088 0.53407,-1.42362 0.81887,-2.18386 0.28481,-0.76024 0.69818,-1.78936 0.91861,-2.28695 0.51687,-1.16679 0.93191,-2.22128 1.34899,-3.42741 0.43637,-1.26192 0.89155,-2.35858 1.33077,-3.20625 1.41661,-2.73393 3.52602,-6.2112 4.8057,-7.922 2.1924,-2.93099 3.58642,-4.367729 5.58887,-5.760156 1.63701,-1.138312 3.379,-1.872735 4.46559,-1.882701 0.23862,-0.0022 0.58679,-0.02012 0.7737,-0.03985 0.19187,-0.02025 0.69749,-0.01152 1.16115,0.02005 0.91321,0.06217 1.10721,0.118995 1.79774,0.526553 0.92595,0.546501 1.62817,1.712062 2.22548,3.693899 0.52702,1.748555 0.695,2.701855 0.79382,4.504895 0.11468,2.0923 -0.0835,3.87119 -0.91399,8.203 -0.64225,3.35005 -1.02994,5.12462 -1.41269,6.46629 -0.68083,2.3865 -2.27779,6.52104 -3.52181,9.11797 -0.45346,0.9466 -1.0212,2.13487 -1.26163,2.6406 -0.24044,0.50572 -0.71764,1.42875 -1.06044,2.05118 -0.3428,0.62242 -0.78304,1.44997 -0.97833,1.83899 -0.38474,0.76645 -1.3694,2.53832 -1.9097,3.43644 -0.34411,0.572 -1.66505,2.97481 -1.8696,3.40083 -0.0623,0.12967 -0.30311,0.678 -0.53523,1.2185 -0.46433,1.08126 -0.93409,2.09601 -1.52059,3.28466 -0.21114,0.42792 -0.59553,1.23425 -0.85422,1.79184 -0.86533,1.86524 -2.00313,4.17464 -2.61358,5.30478 -0.49909,0.924 -1.49473,2.51327 -2.13808,3.41293 l -0.65348,0.91378 0.11577,0.66586 c 0.23524,1.35321 0.52945,2.02972 1.12009,2.57558 0.87689,0.81043 2.06497,0.88959 3.56104,0.23728 0.74645,-0.32546 1.52373,-0.82776 2.37146,-1.53251 1.50273,-1.24928 3.13543,-3.33591 4.06788,-5.19887 0.075,-0.14984 0.28179,-0.5589 0.45954,-0.90901 0.17774,-0.35012 0.45757,-0.94425 0.62183,-1.3203 0.29402,-0.67311 0.29924,-0.69435 0.33648,-1.36746 0.1769,-3.19714 0.81825,-6.74327 2.0722,-11.45746 2.1179,-7.96224 4.25092,-12.77891 8.17551,-18.46149 1.29804,-1.87949 3.60449,-4.7622 5.07628,-6.34456 3.21895,-3.46082 7.73942,-6.75619 9.86188,-7.1892 0.51853,-0.10579 1.17642,-0.0796 1.49764,0.0597 0.99565,0.43167 1.82771,2.10144 2.07356,4.16122 0.0388,0.32528 0.0684,1.17052 0.066,1.88614 -0.008,2.3371 -0.31988,4.25333 -1.0361,6.36296 -0.57339,1.68895 -1.56499,4.05408 -2.32408,5.54332 -0.49886,0.97871 -1.817,3.1765 -2.18654,3.64574 -0.17736,0.22521 -0.40627,0.5474 -0.50867,0.71597 -0.31627,0.52061 -0.42653,0.59264 -1.78717,1.16742 -1.34162,0.56675 -2.20964,1.04487 -4.18085,2.30291 -0.70306,0.44869 -1.29206,0.7924 -1.43018,0.83457 -0.0545,0.0166 -0.0991,0.0522 -0.0991,0.0789 0,0.0679 -0.47213,0.0611 -0.55509,-0.008 -0.0919,-0.0765 -0.0855,-0.30459 0.0164,-0.58428 0.0464,-0.12731 0.0846,-0.27196 0.085,-0.32144 8.8e-4,-0.13373 0.53516,-1.21236 0.85462,-1.72545 0.15339,-0.24637 0.4471,-0.80868 0.65268,-1.24957 0.20557,-0.44088 0.54595,-1.14111 0.75639,-1.55606 0.21044,-0.41496 0.4906,-1.0197 0.62256,-1.34388 0.13198,-0.32418 0.36263,-0.87588 0.51255,-1.22599 0.38977,-0.91016 1.1362,-2.92216 2.06867,-5.57605 0.21138,-0.6016 0.77301,-2.67973 0.87216,-3.22713 0.0742,-0.40994 0.0781,-0.81548 0.009,-0.90683 -0.0781,-0.10274 -0.62092,0.19084 -1.04828,0.56694 -1.39875,1.23101 -3.97164,4.82913 -5.79606,8.10569 -1.8027,3.23751 -2.94429,5.63726 -3.66755,7.70961 -1.03771,2.97334 -2.17471,7.17827 -2.57553,9.52502 -0.093,0.54463 -0.16875,1.03267 -0.16827,1.08453 5.9e-4,0.0519 0.17331,-0.18154 0.38407,-0.51868 1.89066,-3.02446 3.77521,-5.08398 6.62915,-7.2446 2.58272,-1.9553 4.91982,-3.17052 7.42749,-3.86206 1.48621,-0.40985 2.60034,-0.53928 4.32654,-0.50263 1.28692,0.0273 1.91466,0.11075 2.89573,0.3848 1.34665,0.37616 2.81103,1.24839 3.78027,2.25163 1.41175,1.46128 2.07894,2.80791 2.65841,5.36561 0.0851,0.37557 0.11926,0.77974 0.14151,1.67395 0.031,1.24491 -0.0328,2.01642 -0.26008,3.14356 -0.0592,0.29393 -0.13722,0.74661 -0.17327,1.00595 -0.0873,0.6278 -0.24863,1.19599 -0.54242,1.90972 -0.37457,0.91004 -1.15941,2.36447 -1.66662,3.08856 -0.1635,0.23342 -0.55194,0.81694 -0.8632,1.29673 -0.63119,0.97294 -1.55053,2.16344 -2.12324,2.74946 -0.2076,0.21244 -0.64704,0.61966 -0.97652,0.90494 -0.32948,0.28528 -0.81006,0.73443 -1.06794,0.99811 -0.63032,0.64449 -1.76014,1.54531 -2.54285,2.02745 -0.73351,0.45184 -1.85803,1.0774 -2.28248,1.26972 -0.33704,0.15271 -0.31984,0.16874 0.29443,0.27432 0.81147,0.13946 1.85048,0.0755 2.72443,-0.16784 3.51709,-0.97912 6.81809,-2.80888 10.0315,-5.56049 0.9808,-0.83986 2.48463,-2.25447 2.6195,-2.4641 0.0362,-0.0563 0.10673,-0.62217 0.15674,-1.25757 0.19424,-2.46785 0.84008,-5.85323 1.56155,-8.18532 0.35727,-1.15485 0.67246,-1.99681 1.31027,-3.50017 0.91819,-2.16424 1.335,-2.99552 2.4277,-4.84184 1.46452,-2.47457 3.03808,-4.40701 4.87154,-5.98261 1.0722,-0.9214 1.92516,-1.47648 3.0067,-1.95664 1.5181,-0.67398 3.16737,-0.97974 4.26327,-0.79038 0.5209,0.09 1.13381,0.34344 1.45167,0.60024 0.59419,0.48005 0.96397,1.63085 0.96397,2.99994 0,1.93202 -0.85966,6.3312 -1.73246,8.86555 -0.3244,0.94195 -1.40044,3.56494 -1.82645,4.45221 -0.36103,0.7519 -1.08775,2.11462 -1.80675,3.3879 -0.26091,0.46206 -1.87493,2.9656 -2.27575,3.52997 -1.18254,1.66509 -2.84822,3.76306 -3.4,4.28239 -0.14271,0.13432 -0.34657,0.38559 -0.45303,0.55838 -0.21276,0.34533 -0.35439,0.42481 -0.67998,0.38157 -0.10717,-0.0142 -0.24736,-0.0697 -0.31153,-0.12327 -0.11058,-0.0923 -0.11644,-0.14834 -0.11234,-1.07425 0.003,-0.61576 0.0491,-1.36034 0.12541,-2.01424 0.0666,-0.57056 0.14908,-1.33445 0.18329,-1.69754 0.0904,-0.95962 0.21118,-1.89219 0.33574,-2.59242 0.0601,-0.33771 0.1496,-0.87926 0.19896,-1.20344 0.13179,-0.86563 0.4742,-2.60522 0.60112,-3.05392 0.0684,-0.24182 0.25854,-0.6445 0.50098,-1.06096 1.41663,-2.43351 2.05211,-3.60923 2.45272,-4.5378 0.20915,-0.48481 0.63024,-1.76728 0.59099,-1.79996 -0.0292,-0.0243 -0.60657,0.63811 -0.92965,1.06653 -0.33939,0.45003 -0.99451,1.50658 -1.29669,2.09123 -0.55485,1.07352 -1.44741,3.29975 -2.02674,5.05509 -0.66696,2.02086 -1.32734,5.26454 -1.56479,7.68603 -0.0956,0.97448 -0.13376,4.23442 -0.0588,5.01783 0.11092,1.15931 0.34186,2.43728 0.57589,3.18689 0.23443,0.75091 0.44923,1.45652 0.59434,1.95247 0.11777,0.40249 0.32248,0.72754 0.8422,1.3373 0.55081,0.64624 0.90239,0.9371 1.60012,1.3238 0.64338,0.35657 1.01634,0.50322 1.57531,0.6194 0.69011,0.14345 1.56973,0.0191 2.83854,-0.40129 1.61289,-0.53438 2.27472,-0.90288 3.51779,-1.95868 0.60588,-0.51461 0.79405,-0.59652 0.92004,-0.40053 0.0709,0.11033 0.0781,0.57941 0.01,0.64203 -0.0546,0.05 -0.25353,0.84605 -0.34707,1.38867 -0.0335,0.19451 -0.10965,0.50219 -0.16914,0.68373 -0.0595,0.18154 -0.19821,0.70141 -0.30824,1.15526 -0.24509,1.01095 -0.58407,1.96269 -0.89414,2.51053 -0.3144,0.55546 -0.3393,0.57124 -0.84949,0.5383 -0.84003,-0.0542 -1.07545,-0.10788 -1.88602,-0.4297 -0.43613,-0.17317 -1.03511,-0.38579 -1.33106,-0.4725 -0.29595,-0.0867 -0.99688,-0.2995 -1.55763,-0.47288 -3.24241,-1.0025 -5.18343,-1.4674 -8.26958,-1.9807 -1.28975,-0.21452 -2.03816,-0.37127 -2.15735,-0.45187 -0.0339,-0.0229 -0.0942,-0.13207 -0.13393,-0.24256 -0.0398,-0.11049 -0.14585,-0.27062 -0.23574,-0.35585 -0.0899,-0.0852 -0.16343,-0.18563 -0.16343,-0.22312 0,-0.0375 -0.0678,-0.20555 -0.15061,-0.37347 l -0.1506,-0.3053 -0.30767,0.23408 c -0.16922,0.12875 -0.61627,0.40582 -0.99345,0.61571 -0.79378,0.44173 -0.6198,0.42628 -2.07933,0.18459 -0.79982,-0.13244 -1.49167,-0.22849 -3.05862,-0.42463 -1.87869,-0.23516 -5.52026,-0.39699 -8.18462,-0.36372 -2.06094,0.0257 -2.76599,0.0705 -4.26388,0.27052 -1.61034,0.21506 -1.97893,0.18162 -2.87288,-0.2607 -1.167,-0.57741 -2.2243,-1.34138 -2.99204,-2.16191 -0.44209,-0.4725 -0.54688,-0.61048 -1.02794,-1.35348 -0.51173,-0.79037 -1.06531,-1.49276 -1.3446,-1.70602 -0.5138,-0.39233 -1.06101,-0.34586 -1.56745,0.13313 -0.26898,0.25438 -0.28081,0.33248 -0.0993,0.65509 0.26258,0.46663 0.83354,0.81673 1.40675,0.86258 0.32606,0.0261 0.34828,0.0465 0.92018,0.84701 0.20855,0.29191 0.57495,0.75873 0.81423,1.03738 0.56658,0.65981 0.69848,0.83082 0.91047,1.18042 0.19524,0.32199 0.21395,0.45592 0.0964,0.69009 -0.0998,0.19876 -0.34926,0.28147 -1.6302,0.54043 -1.6232,0.32814 -2.96987,0.52156 -3.64285,0.5232 -0.45672,0.001 -0.83625,-0.15337 -1.69923,-0.6916 -0.89079,-0.55557 -1.4785,-1.07079 -1.75744,-1.54064 -0.11764,-0.19817 -0.248,-0.36031 -0.28969,-0.36031 -0.15824,0 -0.69776,-1.18114 -0.90462,-1.98045 -0.142,-0.54873 -0.14317,-1.65955 -0.002,-2.21622 0.32715,-1.29292 0.66466,-1.91493 1.48346,-2.73392 0.69674,-0.69691 1.29684,-1.03725 2.45313,-1.39126 1.45431,-0.44525 2.53582,-0.60847 4.03019,-0.60823 1.48492,4.9e-4 2.47807,0.19733 3.73831,0.74188 0.37512,0.16209 0.75845,0.29326 0.90385,0.30929 0.19705,0.0217 0.25924,0.0503 0.28321,0.13022 0.0169,0.0563 0.10718,0.14994 0.20064,0.20809 0.0935,0.0581 0.28995,0.20139 0.43666,0.31833 l 0.26673,0.21263 0.41296,-0.17085 c 0.45164,-0.18686 1.25138,-0.7424 1.71989,-1.19473 0.31325,-0.30244 0.94322,-1.02391 1.47745,-1.69207 0.53026,-0.66319 1.06239,-1.46307 1.75667,-2.6406 0.35169,-0.5965 0.81198,-1.34002 1.02285,-1.65228 0.78153,-1.15729 1.84698,-3.56207 2.22533,-5.02269 0.17158,-0.66242 0.2129,-1.71255 0.0863,-2.1924 -0.18218,-0.69033 -0.64907,-1.23418 -1.26633,-1.47506 -0.27802,-0.10849 -0.39558,-0.12567 -0.86012,-0.12567 -0.66793,0 -1.17387,0.13292 -2.05012,0.53858 -1.61221,0.74638 -3.1511,1.78288 -4.87109,3.28086 -1.84358,1.60563 -3.63787,3.69886 -4.74107,5.53097 -0.3333,0.55353 -1.38714,2.59964 -1.70285,3.30623 -0.20513,0.4591 -0.62002,1.1977 -0.69447,1.23634 -0.0316,0.0164 -0.23385,0.0443 -0.44942,0.062 -0.85948,0.0705 -2.36213,0.44615 -3.21961,0.80488 -0.74043,0.30975 -1.57322,0.9042 -2.11185,1.50745 -0.569,0.63726 -1.13301,1.66447 -1.3467,2.45269 -0.18361,0.67728 -0.16848,1.23114 0.0649,2.37362 0.22558,1.10453 0.52056,1.7749 1.24914,2.83881 0.22125,0.3231 0.53941,0.8187 0.70701,1.10134 0.25295,0.42655 0.30473,0.55648 0.30473,0.7646 0,0.48759 -0.41441,0.70832 -1.6197,0.86268 -1.38726,0.17768 -3.76084,0.73057 -5.37546,1.25215 -0.30325,0.098 -0.46229,0.12296 -0.67633,0.10633 -0.41109,-0.0319 -0.53953,-0.17421 -0.73571,-0.81499 -0.0868,-0.28357 -0.16835,-0.54497 -0.18119,-0.5809 -0.0148,-0.0414 -0.23577,0.10592 -0.60276,0.40172 -0.52448,0.42274 -1.46263,1.00523 -1.96219,1.2183 -0.24084,0.10273 -2.05125,0.65254 -3.03523,0.92178 -1.82365,0.499 -3.60866,1.0712 -4.08443,1.30931 -0.3303,0.1653 -0.89176,0.27072 -1.19375,0.22413 -0.35835,-0.0553 -2.00447,-0.7455 -2.64896,-1.11072 -1.33148,-0.75451 -2.79626,-2.02952 -3.38118,-2.94312 l -0.18081,-0.28242 -0.28455,0.28106 c -0.50931,0.50304 -2.59935,2.21204 -3.15121,2.5767 -0.76885,0.50803 -1.8687,1.1396 -2.40226,1.37945 -0.91937,0.41329 -2.25808,0.78805 -3.57337,1.00033 -0.68855,0.11114 -1.97594,0.11134 -2.64937,4.9e-4 -1.27717,-0.21036 -2.56819,-0.75013 -3.4155,-1.42802 -0.66501,-0.53204 -0.93266,-0.8649 -1.8058,-2.24582 -0.27467,-0.43441 -0.51503,-0.78973 -0.53412,-0.78962 -0.0191,0 -0.18117,0.23883 -0.36017,0.53048 -0.83008,1.35245 -2.26213,2.59826 -3.9131,3.40418 -1.47663,0.72083 -3.17729,1.21757 -4.61582,1.34823 -0.96811,0.0879 -2.32832,0.0362 -3.01885,-0.11477 -1.87021,-0.40893 -3.05133,-1.08468 -4.27576,-2.44627 -0.22791,-0.25344 -0.508,-0.60355 -0.62241,-0.77803 -0.11441,-0.17447 -0.31363,-0.46973 -0.4427,-0.65611 l -0.23469,-0.33888 -0.50808,0.33355 c -1.30059,0.85382 -3.05972,1.70352 -4.79052,2.31395 -1.73056,0.61032 -4.99269,1.40633 -7.10241,1.73307 -2.78927,0.432 -4.38747,0.54654 -6.52908,0.46792 z m 138.44593,-0.46514 c -0.15576,-0.046 -0.90767,-0.25926 -1.67091,-0.47389 -0.76324,-0.21463 -1.57887,-0.45365 -1.81251,-0.53118 -0.4628,-0.15356 -2.5548,-0.73874 -3.0628,-0.85674 -0.43603,-0.10128 -0.52848,-0.19915 -0.53043,-0.56148 -0.002,-0.37052 0.0702,-0.66926 0.33249,-1.37661 0.59957,-1.61677 1.58017,-5.38006 2.21777,-8.51122 0.31089,-1.52675 0.49507,-2.39347 0.9369,-4.40886 0.18763,-0.85584 0.41439,-1.90619 0.50393,-2.33411 0.9655,-4.61425 0.95131,-4.54861 1.21279,-5.60739 0.43889,-1.77712 1.20272,-4.47137 1.6855,-5.94524 0.36308,-1.10842 1.42194,-3.69118 1.95251,-4.76251 1.10745,-2.23619 2.60281,-4.72904 4.0024,-6.67223 1.98251,-2.75252 3.10029,-4.02901 4.7071,-5.37547 1.71277,-1.43526 2.95665,-2.14342 4.87497,-2.77542 2.43208,-0.80126 4.40659,-0.97853 6.01213,-0.53975 0.52379,0.14315 1.11944,0.47994 1.7572,0.99358 0.66901,0.5388 0.97538,0.87494 1.32086,1.44921 0.75412,1.25351 1.04245,2.63989 0.91588,4.40371 -0.12765,1.77898 -0.33989,2.78374 -0.86266,4.08393 -0.83305,2.07191 -1.68228,3.53398 -2.72329,4.68851 -1.03251,1.1451 -3.61349,3.2229 -5.57051,4.4845 -0.43613,0.28115 -1.11158,0.7251 -1.50099,0.98655 -1.16038,0.77908 -2.91717,1.78051 -3.26299,1.86 -0.10833,0.0249 -0.39837,0.15283 -0.64453,0.28429 -0.28799,0.15379 -0.50927,0.23901 -0.62062,0.23901 -0.15942,0 -0.17306,-0.0128 -0.17306,-0.16208 0,-0.29083 0.66205,-2.89482 1.02576,-4.03459 0.30992,-0.97115 1.2131,-3.15432 1.58943,-3.8419 0.0334,-0.0609 0.36978,-0.34969 0.74763,-0.64169 0.81074,-0.62651 1.13237,-0.91466 1.63313,-1.46319 0.61901,-0.67806 1.008,-1.35867 1.008,-1.76368 0,-0.20689 -0.14108,-0.44711 -0.26257,-0.44711 -0.36467,0 -1.70712,0.93948 -2.2538,1.57725 -0.85519,0.99771 -2.86452,4.36702 -2.86452,4.80332 0,0.0838 -0.26903,0.82024 -0.59784,1.63659 -0.93039,2.30994 -1.13446,2.92778 -2.00094,6.05819 -1.13468,4.09934 -1.39854,5.17418 -2.21092,9.00633 -0.36411,1.71755 -0.6652,2.98046 -0.8825,3.70156 -0.0742,0.24637 -0.27556,0.96782 -0.44737,1.60322 -0.53742,1.98752 -0.95862,3.39523 -1.76359,5.8942 -0.19632,0.60946 -0.53876,1.69163 -0.76096,2.40483 -0.22221,0.7132 -0.49335,1.51952 -0.60254,1.79184 -0.10918,0.27231 -0.22527,0.5906 -0.25795,0.7073 -0.0344,0.12281 -0.13323,0.27675 -0.23462,0.36544 -0.20565,0.17991 -0.41359,0.19513 -0.86096,0.063 z M 143.33669,152.5698 c 0,-0.16458 0.12789,-0.2725 0.32568,-0.27483 0.10272,-0.001 0.12744,0.0245 0.12744,0.13265 0,0.15554 -0.15321,0.29023 -0.33014,0.29023 -0.10011,0 -0.12298,-0.0275 -0.12298,-0.14805 z M 92.40111,132.77089 c -0.59187,-0.047 -1.15332,-0.20439 -1.67571,-0.46972 -1.60991,-0.8177 -1.61139,-0.81872 -2.15696,-1.48616 -0.6667,-0.81559 -0.97363,-1.41432 -1.28117,-2.49914 -0.25667,-0.90533 -0.30599,-1.23213 -0.30534,-2.02268 5.9e-4,-0.89001 0.0785,-1.18014 0.3745,-1.39647 0.36829,-0.2692 1.00348,-0.22087 1.24623,0.0948 0.0698,0.0908 0.21406,0.26053 0.32057,0.37724 0.1065,0.1167 0.32494,0.39734 0.48542,0.62364 0.68929,0.97197 1.92279,1.67007 2.7795,1.57306 0.51437,-0.0582 1.13376,-0.48937 1.4418,-1.00355 0.0746,-0.12458 0.19225,-0.38258 0.26139,-0.57333 0.1604,-0.44256 0.13132,-0.75367 -0.11765,-1.25865 -0.27287,-0.55343 -0.81627,-0.9644 -1.27519,-0.9644 -0.0815,0 -0.34356,0.0671 -0.58239,0.14911 -0.95241,0.32702 -1.91534,0.13448 -2.38689,-0.47727 -0.30007,-0.3893 -0.41147,-0.75137 -0.41407,-1.34579 -0.003,-0.58291 0.0583,-0.76079 0.48512,-1.41904 0.56754,-0.87521 1.63801,-1.51616 3.07271,-1.8398 0.31488,-0.071 0.58984,-0.089 1.35773,-0.0887 0.94177,2.5e-4 0.97463,0.004 1.49737,0.1553 0.81149,0.23523 1.27998,0.46057 1.77597,0.8542 0.55508,0.44054 0.76839,0.68265 1.1126,1.26278 0.50302,0.8478 0.74983,1.70695 0.86311,3.00434 0.15311,1.75374 -0.15646,3.23297 -1.01238,4.83747 -0.55717,1.04448 -0.90387,1.51389 -1.64363,2.22534 -1.15601,1.11178 -1.99609,1.56436 -3.13113,1.68682 -0.46773,0.0505 -0.46368,0.0505 -1.09151,4.9e-4 z M 62.39672,131.6402 c 0,-0.11945 0.022,-0.14146 0.1416,-0.14146 0.11958,0 0.1416,0.022 0.1416,0.14146 0,0.11946 -0.022,0.14146 -0.1416,0.14146 -0.11957,0 -0.1416,-0.022 -0.1416,-0.14146 z"
       id="path4529"
       inkscape:connector-curvature="0" />
  </g>
</svg>
