<?xml version="1.0" encoding="UTF-8" standalone="no"?>
<!-- Created with Inkscape (http://www.inkscape.org/) -->

<svg
   xmlns:dc="http://purl.org/dc/elements/1.1/"
   xmlns:cc="http://creativecommons.org/ns#"
   xmlns:rdf="http://www.w3.org/1999/02/22-rdf-syntax-ns#"
   xmlns:svg="http://www.w3.org/2000/svg"
   xmlns="http://www.w3.org/2000/svg"
   xmlns:sodipodi="http://sodipodi.sourceforge.net/DTD/sodipodi-0.dtd"
   xmlns:inkscape="http://www.inkscape.org/namespaces/inkscape"
   width="139.814mm"
   height="108.33781mm"
   viewBox="0 0 139.814 108.33781"
   version="1.1"
   id="svg8"
   inkscape:version="0.92.4 (5da689c313, 2019-01-14)"
   sodipodi:docname="logo.svg"
   inkscape:export-filename="C:\Users\KelLynn\SilkyLogo.png"
   inkscape:export-xdpi="96"
   inkscape:export-ydpi="96">
  <defs
     id="defs2">
    <inkscape:path-effect
       effect="simplify"
       id="path-effect4593"
       is_visible="true"
       steps="1"
       threshold="0.000408163"
       smooth_angles="360"
       helper_size="0"
       simplify_individual_paths="false"
       simplify_just_coalesce="false"
       simplifyindividualpaths="false"
       simplifyJustCoalesce="false" />
    <inkscape:path-effect
       effect="simplify"
       id="path-effect4589"
       is_visible="true"
       steps="1"
       threshold="0.000408163"
       smooth_angles="360"
       helper_size="0"
       simplify_individual_paths="false"
       simplify_just_coalesce="false"
       simplifyindividualpaths="false"
       simplifyJustCoalesce="false" />
    <inkscape:path-effect
       effect="simplify"
       id="path-effect4585"
       is_visible="true"
       steps="1"
       threshold="0.000408163"
       smooth_angles="360"
       helper_size="0"
       simplify_individual_paths="false"
       simplify_just_coalesce="false"
       simplifyindividualpaths="false"
       simplifyJustCoalesce="false" />
    <inkscape:path-effect
       effect="simplify"
       id="path-effect4581"
       is_visible="true"
       steps="1"
       threshold="0.000408163"
       smooth_angles="360"
       helper_size="0"
       simplify_individual_paths="false"
       simplify_just_coalesce="false"
       simplifyindividualpaths="false"
       simplifyJustCoalesce="false" />
    <inkscape:path-effect
       effect="simplify"
       id="path-effect4577"
       is_visible="true"
       steps="1"
       threshold="0.000408163"
       smooth_angles="360"
       helper_size="0"
       simplify_individual_paths="false"
       simplify_just_coalesce="false"
       simplifyindividualpaths="false"
       simplifyJustCoalesce="false" />
    <inkscape:path-effect
       effect="simplify"
       id="path-effect4573"
       is_visible="true"
       steps="1"
       threshold="0.000408163"
       smooth_angles="360"
       helper_size="0"
       simplify_individual_paths="false"
       simplify_just_coalesce="false"
       simplifyindividualpaths="false"
       simplifyJustCoalesce="false" />
    <inkscape:path-effect
       effect="simplify"
       id="path-effect4569"
       is_visible="true"
       steps="1"
       threshold="0.000408163"
       smooth_angles="360"
       helper_size="0"
       simplify_individual_paths="false"
       simplify_just_coalesce="false"
       simplifyindividualpaths="false"
       simplifyJustCoalesce="false" />
    <inkscape:path-effect
       effect="simplify"
       id="path-effect4565"
       is_visible="true"
       steps="1"
       threshold="0.000408163"
       smooth_angles="360"
       helper_size="0"
       simplify_individual_paths="false"
       simplify_just_coalesce="false"
       simplifyindividualpaths="false"
       simplifyJustCoalesce="false" />
    <inkscape:path-effect
       effect="simplify"
       id="path-effect4561"
       is_visible="true"
       steps="1"
       threshold="0.000408163"
       smooth_angles="360"
       helper_size="0"
       simplify_individual_paths="false"
       simplify_just_coalesce="false"
       simplifyindividualpaths="false"
       simplifyJustCoalesce="false" />
    <inkscape:path-effect
       effect="simplify"
       id="path-effect4557"
       is_visible="true"
       steps="1"
       threshold="0.000408163"
       smooth_angles="360"
       helper_size="0"
       simplify_individual_paths="false"
       simplify_just_coalesce="false"
       simplifyindividualpaths="false"
       simplifyJustCoalesce="false" />
  </defs>
  <sodipodi:namedview
     id="base"
     pagecolor="#ffffff"
     bordercolor="#666666"
     borderopacity="1.0"
     inkscape:pageopacity="0.0"
     inkscape:pageshadow="2"
     inkscape:zoom="0.98994949"
     inkscape:cx="-105.21903"
     inkscape:cy="263.33062"
     inkscape:document-units="mm"
     inkscape:current-layer="g4612"
     showgrid="false"
     fit-margin-top="0"
     fit-margin-left="0"
     fit-margin-right="0"
     fit-margin-bottom="0"
     inkscape:window-width="1920"
     inkscape:window-height="1017"
     inkscape:window-x="-8"
     inkscape:window-y="-8"
     inkscape:window-maximized="1" />
  <metadata
     id="metadata5">
    <rdf:RDF>
      <cc:Work
         rdf:about="">
        <dc:format>image/svg+xml</dc:format>
        <dc:type
           rdf:resource="http://purl.org/dc/dcmitype/StillImage" />
        <dc:title></dc:title>
      </cc:Work>
    </rdf:RDF>
  </metadata>
  <g
     inkscape:label="Layer 1"
     inkscape:groupmode="layer"
     id="layer1"
     transform="translate(-44.619782,-103.73586)">
    <g
       id="g4612"
       transform="translate(291.19194,-199.76543)"
       style="fill:#f2f2f2">
      <path
         inkscape:transform-center-x="0.27495631"
         inkscape:transform-center-y="-3.9351274"
         inkscape:connector-curvature="0"
         id="path4553"
         d="m -180.13828,329.45814 c 0.094,2.08621 -0.31262,3.67669 -1.08529,4.24459 -0.34102,0.24991 -1.43842,0.70174 -2.43945,1.00297 -1.00104,0.30124 -1.84083,0.68034 -1.8662,0.84241 -0.0254,0.1621 0.58341,0.3746 1.35289,0.47227 1.53548,0.19484 3.14529,1.27135 3.95897,2.64732 0.44004,0.74416 0.41675,0.93538 -0.19506,1.60038 -0.38216,0.4154 -1.93562,1.71458 -3.45214,2.88711 -3.06083,2.36653 -3.24405,2.28191 -1.36857,-0.63199 l 0.94546,-1.46898 -0.90025,-1.38138 c -0.89656,-1.37581 -0.90224,-1.37901 -1.38813,-0.79606 -0.76371,0.91626 -2.17877,1.10237 -3.40419,0.44771 -0.59747,-0.3192 -1.18428,-0.8298 -1.30404,-1.13469 -0.196,-0.499 -0.33035,-0.47169 -1.34586,0.27372 -0.6207,0.45509 -1.20212,1.01579 -1.2926,1.24521 -0.0904,0.22942 0.29599,1.56702 0.85881,2.97245 0.56282,1.40543 0.99715,2.72232 0.9652,2.9264 -0.0355,0.22693 -1.0041,-0.98529 -2.49333,-3.12057 -2.66857,-3.82623 -3.40216,-5.13955 -3.18285,-5.69824 0.43688,-1.113 3.26702,-2.11926 5.19703,-1.84784 0.70638,0.0993 1.29828,0.0916 1.31537,-0.0177 0.017,-0.109 -0.83099,-0.78523 -1.88461,-1.5025 -1.86169,-1.2674 -1.92154,-1.33541 -2.12325,-2.41272 -0.24005,-1.28213 0.58362,-4.57371 1.2697,-5.07401 0.38646,-0.28181 0.43469,0.0417 0.28024,1.87986 -0.10264,1.22114 -0.24954,2.46891 -0.32648,2.77282 -0.27025,1.06721 2.39686,3.74583 3.04291,3.05605 0.25112,-0.26814 0.13112,-0.70932 -0.46942,-1.72572 -1.06292,-1.79898 -1.11292,-2.50378 -0.28476,-4.01492 0.71891,-1.31182 1.96768,-2.44684 2.2564,-2.05089 0.0918,0.12595 -0.2127,0.97109 -0.67677,1.87813 -1.04325,2.039 -1.14396,2.87576 -0.47735,3.96623 0.43781,0.71632 0.60976,0.80293 1.08775,0.54889 0.79485,-0.42247 2.86616,-0.11354 3.30881,0.49349 0.32766,0.44933 0.44045,0.42618 1.00593,-0.20666 1.09613,-1.22668 1.18299,-1.7302 0.70827,-4.10568 -0.25397,-1.27076 -0.31654,-2.3216 -0.13906,-2.3352 0.4487,-0.0344 1.40292,1.89606 1.64053,3.31896 0.24291,1.45453 -0.0721,2.14154 -1.51886,3.31291 -0.77828,0.63003 -1.1062,1.0817 -1.06058,1.46049 0.0761,0.63239 0.2587,0.61028 2.04231,-0.24718 1.59328,-0.76598 1.95444,-1.37803 2.35238,-3.98759 0.47326,-3.10289 0.96248,-3.32273 1.09016,-0.48984 z m -3.05655,8.27761 c -1.1483,-0.60044 -2.2299,-1.08084 -2.40359,-1.06753 -0.64659,0.0495 -0.35953,0.51649 0.60022,0.9762 0.97183,0.46554 1.85187,1.6721 2.18558,2.9965 0.10613,0.42119 0.25398,0.43758 0.74143,0.0821 0.55459,-0.40442 1.21673,-1.54928 1.03788,-1.79455 -0.0406,-0.0556 -1.01319,-0.59232 -2.16148,-1.19278 z m -11.3928,-1.33476 c -2.0121,0.40169 -2.34658,0.90294 -1.51534,2.27072 0.49776,0.81888 0.60281,0.87384 0.86239,0.45055 0.85314,-1.39133 1.76539,-2.18106 2.68262,-2.32231 0.51427,-0.0792 1.0684,-0.24658 1.23137,-0.37194 0.48359,-0.37194 -1.45292,-0.38799 -3.26104,-0.027 z"
         style="fill:#f9f9f9;stroke-width:0.28754869" />
      <path
         style="fill:#f9f9f9;stroke-width:0.26458332"
         d="m -170.36504,411.67245 c -7.72842,-0.94276 -16.05144,-2.70424 -22.02694,-8.01079 -6.10139,-5.63162 -7.98457,-15.6588 -2.79803,-22.53088 4.3346,-6.19011 12.67808,-7.32385 19.51772,-8.57321 6.43257,1.58037 1.53794,-9.82175 -1.71422,-3.87838 -4.0397,4.9986 -12.61392,6.51389 -17.39511,1.7774 -4.42715,4.56738 -10.49147,1.76241 -14.46847,-0.82355 -7.22648,5.51108 -17.31609,5.13076 -25.77682,2.75858 -6.49067,-1.81982 -11.46216,-6.77741 -11.51635,-13.62488 -0.55228,-7.89257 7.09136,-14.18325 14.45455,-14.91853 6.73026,-1.26199 13.08126,1.89534 17.56445,6.78415 3.93991,2.73864 -0.50862,13.22862 -3.59072,5.7476 -3.59229,-4.2037 -8.94722,-7.55167 -15.10593,-5.41568 -6.68652,2.31904 -6.79081,10.22578 -2.17942,13.93901 6.96547,4.34207 16.50567,0.99871 21.42327,-4.95518 5.05214,-5.43769 0.54055,-12.11544 -1.49945,-17.68245 -3.6937,-6.96079 2.59856,-14.11689 10.03583,-12.92744 5.76212,-0.2363 12.45401,8.26574 5.60156,11.8888 -2.75135,2.95909 -5.29604,-2.86157 -2.77571,-4.59738 -6.85814,-2.96592 -3.53386,7.70821 -0.52954,9.93783 3.46483,4.49445 2.45863,14.45055 -1.30229,17.5702 5.05858,3.2005 9.70815,-5.16035 12.59597,-8.41594 1.34704,-1.94432 4.58958,-10.02088 1.953,-9.05991 -1.88258,5.35159 -3.28175,11.14351 -7.72437,15.04214 -1.04582,-5.67464 0.21169,-13.01772 3.72667,-18.08783 4.63388,-7.78735 12.64972,-3.05486 10.08472,6.7802 -1.36891,5.24885 -3.4955,11.23413 -5.20356,14.57083 2.44679,2.41084 7.14912,-4.06818 6.97785,-8.70762 -0.41545,-11.25394 2.24525,-22.32717 5.54818,-32.93134 2.60483,-7.44871 5.99184,-15.9326 13.55141,-19.53843 7.3344,-1.92837 8.48411,7.35371 7.46519,12.48113 -0.0251,2.87036 -3.58325,11.41826 0.74493,5.07718 3.27144,-6.20163 15.51725,-7.99898 13.99262,1.60009 0.10867,7.01276 -3.81216,13.21383 -6.31447,19.52401 7.53395,-2.92603 11.55386,6.86519 6.61462,11.82893 -3.02403,5.62392 -9.1344,8.28732 -14.71747,9.95621 1.61264,7.26422 10.42554,8.31003 14.10898,1.94723 1.68527,-1.18468 3.34015,6.00172 0.75459,7.18792 -6.69414,3.30221 9.66429,2.54475 6.90428,2.47522 -6.63797,-2.8423 -4.88927,-11.90946 -6.11352,-17.78837 0.87044,-6.01387 1.74953,-13.20128 6.90019,-17.18676 7.43154,-3.64741 9.65498,6.68197 5.48998,11.20842 -1.02201,1.83518 -4.30115,9.88048 -4.99477,7.8878 -0.60635,-3.74548 2.49603,-11.01485 0.80548,-12.47987 -2.57178,5.37499 -3.14011,12.12247 -1.13152,17.75041 4.16199,4.7887 13.91389,1.35935 12.98318,-5.42341 0.91576,-6.68449 -0.0252,-15.36942 6.66105,-19.36696 8.1348,-1.06084 6.45777,9.50017 3.75222,13.97131 -3.79366,5.14406 -3.6665,11.44827 -5.04852,17.37766 -2.19864,9.86866 -6.86752,19.31056 -14.62434,25.97728 -5.0788,5.32261 -11.4503,9.18241 -18.54851,11.1571 -7.385,2.66659 -15.32197,3.27976 -23.1123,2.72015 z m 8.79358,-7.23204 c 13.66796,-1.31047 27.08298,-9.11562 33.86144,-21.1983 -8.08177,-1.2311 -16.29891,-1.34323 -24.415,-2.32431 -10.03353,-0.20063 -20.15383,-1.06119 -30.14627,-0.0402 -5.55798,0.75579 -10.81955,6.38306 -8.4695,12.14191 2.29959,6.60178 9.94158,8.54744 15.95617,10.26915 4.34452,0.8082 8.7803,1.98933 13.21316,1.15172 z m 38.41222,-28.77399 c 0.27048,-1.86 -4.45193,1.61901 -0.39065,0.4783 z m -33.57977,-2.75857 c -2.99465,-1.82776 -3.40542,-11.62983 -6.19597,-4.69518 -1.01222,1.0163 -2.35717,2.47532 -2.77385,3.55202 -0.41668,1.07671 0.0949,1.7711 2.79575,1.25814 2.05666,0.0188 4.1272,0.14678 6.17404,-0.11498 z m -10.48753,-14.07284 c 9.49605,-5.4641 12.72592,-16.6334 17.37469,-25.85005 1.45152,-3.03163 5.56203,-14.76785 0.013,-7.73677 -6.23145,8.05495 -10.05117,17.75654 -13.25774,27.33334 0.46579,4.91499 -9.1515,9.08572 -6.56433,1.62148 0.87836,-3.08277 2.73194,-8.87528 -0.27842,-2.85669 -3.43228,3.0224 -3.19186,9.95374 2.71281,7.48869 z m 13.25493,-1.33459 c 3.44639,-1.68907 9.27765,-6.0103 8.78835,-9.18075 -3.67445,1.16608 -10.38784,7.94627 -9.89431,9.6739 z m 40.89204,-5.7944 c 1.93308,-1.84908 1.72755,-8.48585 -0.009,-2.96163 0.0118,0.31026 -1.0689,5.29003 0.009,2.96163 z m -59.08593,-7.92189 c 4.56778,-10.57864 9.66399,-21.39296 10.2837,-33.07442 -5.46261,4.82272 -7.36861,12.46693 -9.73633,19.16799 -1.74905,5.46255 -3.17994,11.30372 -2.33206,17.01529 0.78937,-0.91508 1.23915,-2.04841 1.78469,-3.10886 z"
         id="path4540-3"
         inkscape:connector-curvature="0"
         sodipodi:nodetypes="cccccccsccccsccccccccccccscsccccccccccccccccccccccccccccccccccccccsccccccccccccccccccccccc" />
    </g>
  </g>
</svg>
