<?xml version="1.0" encoding="UTF-8" standalone="no"?>
<!-- Created with Inkscape (http://www.inkscape.org/) -->

<svg
   width="101.24265mm"
   height="78.471779mm"
   viewBox="0 0 101.24265 78.471781"
   version="1.1"
   id="svg8"
   inkscape:version="1.2.1 (9c6d41e410, 2022-07-14)"
   sodipodi:docname="logo.svg"
   inkscape:export-filename="C:\Users\KelLynn\SilkyLogo.png"
   inkscape:export-xdpi="96"
   inkscape:export-ydpi="96"
   xmlns:inkscape="http://www.inkscape.org/namespaces/inkscape"
   xmlns:sodipodi="http://sodipodi.sourceforge.net/DTD/sodipodi-0.dtd"
   xmlns="http://www.w3.org/2000/svg"
   xmlns:svg="http://www.w3.org/2000/svg"
   xmlns:rdf="http://www.w3.org/1999/02/22-rdf-syntax-ns#"
   xmlns:cc="http://creativecommons.org/ns#"
   xmlns:dc="http://purl.org/dc/elements/1.1/">
  <defs
     id="defs2">
    <inkscape:path-effect
       effect="simplify"
       id="path-effect4593"
       is_visible="true"
       steps="1"
       threshold="0.000408163"
       smooth_angles="360"
       helper_size="0"
       simplify_individual_paths="false"
       simplify_just_coalesce="false"
       simplifyindividualpaths="false"
       simplifyJustCoalesce="false"
       lpeversion="0" />
    <inkscape:path-effect
       effect="simplify"
       id="path-effect4589"
       is_visible="true"
       steps="1"
       threshold="0.000408163"
       smooth_angles="360"
       helper_size="0"
       simplify_individual_paths="false"
       simplify_just_coalesce="false"
       simplifyindividualpaths="false"
       simplifyJustCoalesce="false"
       lpeversion="0" />
    <inkscape:path-effect
       effect="simplify"
       id="path-effect4585"
       is_visible="true"
       steps="1"
       threshold="0.000408163"
       smooth_angles="360"
       helper_size="0"
       simplify_individual_paths="false"
       simplify_just_coalesce="false"
       simplifyindividualpaths="false"
       simplifyJustCoalesce="false"
       lpeversion="0" />
    <inkscape:path-effect
       effect="simplify"
       id="path-effect4581"
       is_visible="true"
       steps="1"
       threshold="0.000408163"
       smooth_angles="360"
       helper_size="0"
       simplify_individual_paths="false"
       simplify_just_coalesce="false"
       simplifyindividualpaths="false"
       simplifyJustCoalesce="false"
       lpeversion="0" />
    <inkscape:path-effect
       effect="simplify"
       id="path-effect4577"
       is_visible="true"
       steps="1"
       threshold="0.000408163"
       smooth_angles="360"
       helper_size="0"
       simplify_individual_paths="false"
       simplify_just_coalesce="false"
       simplifyindividualpaths="false"
       simplifyJustCoalesce="false"
       lpeversion="0" />
    <inkscape:path-effect
       effect="simplify"
       id="path-effect4573"
       is_visible="true"
       steps="1"
       threshold="0.000408163"
       smooth_angles="360"
       helper_size="0"
       simplify_individual_paths="false"
       simplify_just_coalesce="false"
       simplifyindividualpaths="false"
       simplifyJustCoalesce="false"
       lpeversion="0" />
    <inkscape:path-effect
       effect="simplify"
       id="path-effect4569"
       is_visible="true"
       steps="1"
       threshold="0.000408163"
       smooth_angles="360"
       helper_size="0"
       simplify_individual_paths="false"
       simplify_just_coalesce="false"
       simplifyindividualpaths="false"
       simplifyJustCoalesce="false"
       lpeversion="0" />
    <inkscape:path-effect
       effect="simplify"
       id="path-effect4565"
       is_visible="true"
       steps="1"
       threshold="0.000408163"
       smooth_angles="360"
       helper_size="0"
       simplify_individual_paths="false"
       simplify_just_coalesce="false"
       simplifyindividualpaths="false"
       simplifyJustCoalesce="false"
       lpeversion="0" />
    <inkscape:path-effect
       effect="simplify"
       id="path-effect4561"
       is_visible="true"
       steps="1"
       threshold="0.000408163"
       smooth_angles="360"
       helper_size="0"
       simplify_individual_paths="false"
       simplify_just_coalesce="false"
       simplifyindividualpaths="false"
       simplifyJustCoalesce="false"
       lpeversion="0" />
    <inkscape:path-effect
       effect="simplify"
       id="path-effect4557"
       is_visible="true"
       steps="1"
       threshold="0.000408163"
       smooth_angles="360"
       helper_size="0"
       simplify_individual_paths="false"
       simplify_just_coalesce="false"
       simplifyindividualpaths="false"
       simplifyJustCoalesce="false"
       lpeversion="0" />
  </defs>
  <sodipodi:namedview
     id="base"
     pagecolor="#ffffff"
     bordercolor="#666666"
     borderopacity="1.0"
     inkscape:pageopacity="0.0"
     inkscape:pageshadow="2"
     inkscape:zoom="0.7"
     inkscape:cx="1185.7143"
     inkscape:cy="-152.14286"
     inkscape:document-units="mm"
     inkscape:current-layer="g4613"
     showgrid="false"
     fit-margin-top="0"
     fit-margin-left="0"
     fit-margin-right="0"
     fit-margin-bottom="0"
     inkscape:window-width="1920"
     inkscape:window-height="991"
     inkscape:window-x="-9"
     inkscape:window-y="-9"
     inkscape:window-maximized="1"
     inkscape:showpageshadow="2"
     inkscape:pagecheckerboard="0"
     inkscape:deskcolor="#d1d1d1" />
  <metadata
     id="metadata5">
    <rdf:RDF>
      <cc:Work
         rdf:about="">
        <dc:format>image/svg+xml</dc:format>
        <dc:type
           rdf:resource="http://purl.org/dc/dcmitype/StillImage" />
      </cc:Work>
    </rdf:RDF>
  </metadata>
  <g
     inkscape:label="Layer 1"
     inkscape:groupmode="layer"
     id="layer1"
     transform="translate(-63.004146,-120.70243)">
    <g
       id="g4612"
       transform="translate(291.19194,-199.76543)"
       style="fill:#f2f2f2">
      <g
         id="g4613"
         transform="matrix(1.1125339,0,0,1.1125339,88.557205,160.55378)"
         style="fill:#333333">
        <path
           style="fill:#999999;stroke-width:0.187221"
           d="m -241.45164,160.62013 c 0.0612,1.35832 -0.20355,2.39387 -0.70663,2.76363 -0.22203,0.16272 -0.93655,0.4569 -1.58831,0.65303 -0.65177,0.19613 -1.19855,0.44296 -1.21507,0.54849 -0.0165,0.10554 0.37985,0.2439 0.88086,0.30749 0.99974,0.12686 2.04788,0.82777 2.57766,1.72365 0.28651,0.48452 0.27134,0.60903 -0.127,1.042 -0.24883,0.27047 -1.26027,1.11636 -2.24767,1.87978 -1.99289,1.54084 -2.11218,1.48574 -0.89107,-0.41148 l 0.61558,-0.95645 -0.58614,-0.8994 c -0.58375,-0.89579 -0.58745,-0.89787 -0.90381,-0.51831 -0.49724,0.59657 -1.41858,0.71774 -2.21645,0.2915 -0.38901,-0.20783 -0.77107,-0.54028 -0.84905,-0.73879 -0.12761,-0.3249 -0.21509,-0.30712 -0.87628,0.17821 -0.40413,0.29631 -0.78269,0.66138 -0.84161,0.81075 -0.0589,0.14938 0.19272,1.02028 0.55917,1.93535 0.36645,0.91507 0.64924,1.77249 0.62844,1.90536 -0.0231,0.14775 -0.65377,-0.64152 -1.6234,-2.03178 -1.73749,-2.49124 -2.21512,-3.34634 -2.07233,-3.7101 0.28445,-0.72466 2.12714,-1.37983 3.38376,-1.20311 0.45992,0.0647 0.8453,0.0596 0.85643,-0.0115 0.0111,-0.071 -0.54106,-0.51126 -1.22706,-0.97827 -1.21214,-0.82519 -1.25111,-0.86948 -1.38244,-1.57091 -0.15629,-0.83478 0.37999,-2.97791 0.8267,-3.30365 0.25162,-0.18349 0.28302,0.0272 0.18246,1.22396 -0.0668,0.79508 -0.16248,1.60749 -0.21257,1.80537 -0.17596,0.69485 1.56058,2.43889 1.98122,1.98978 0.1635,-0.17459 0.0854,-0.46184 -0.30564,-1.12361 -0.69206,-1.17131 -0.72461,-1.6302 -0.1854,-2.61409 0.46808,-0.85412 1.28114,-1.59313 1.46913,-1.33533 0.0598,0.082 -0.13849,0.63228 -0.44064,1.22284 -0.67926,1.32759 -0.74483,1.8724 -0.3108,2.58239 0.28505,0.4664 0.39701,0.52279 0.70822,0.35738 0.51753,-0.27506 1.86614,-0.0739 2.15435,0.32131 0.21334,0.29256 0.28678,0.27749 0.65496,-0.13455 0.71368,-0.79869 0.77023,-1.12653 0.46115,-2.67319 -0.16536,-0.82738 -0.2061,-1.51158 -0.0905,-1.52043 0.29214,-0.0224 0.91343,1.23451 1.06814,2.16095 0.15815,0.94704 -0.0469,1.39435 -0.98893,2.15702 -0.50673,0.41021 -0.72024,0.70429 -0.69053,0.95092 0.0495,0.41174 0.16843,0.39735 1.32973,-0.16094 1.03738,-0.49873 1.27253,-0.89723 1.53162,-2.5963 0.30814,-2.02027 0.62667,-2.16341 0.7098,-0.31893 z m -1.9901,5.38951 c -0.74766,-0.39095 -1.45188,-0.70373 -1.56497,-0.69507 -0.42099,0.0322 -0.23409,0.33629 0.3908,0.6356 0.63275,0.30311 1.20574,1.0887 1.42302,1.95101 0.0691,0.27423 0.16537,0.2849 0.48274,0.0534 0.36109,-0.26331 0.79221,-1.00873 0.67576,-1.16842 -0.0264,-0.0362 -0.65968,-0.38566 -1.40733,-0.77661 z m -7.41779,-0.86906 c -1.31007,0.26154 -1.52785,0.5879 -0.98663,1.47846 0.32409,0.53316 0.39249,0.56895 0.5615,0.29335 0.55547,-0.90589 1.14943,-1.42008 1.74664,-1.51205 0.33483,-0.0516 0.69562,-0.16054 0.80173,-0.24216 0.31487,-0.24217 -0.94598,-0.25262 -2.12324,-0.0176 z"
           id="path4553"
           inkscape:connector-curvature="0"
           inkscape:transform-center-y="-2.5621269"
           inkscape:transform-center-x="0.17902162" />
        <path
           sodipodi:nodetypes="cccccccsccccsccccccccccccscsccccccccccccccccccccccccccccccccccccccsccccccccccccccccccccccc"
           inkscape:connector-curvature="0"
           id="path4540-3"
           d="m -235.08834,214.1494 c -5.03193,-0.61383 -10.451,-1.76072 -14.34162,-5.21578 -3.97258,-3.66672 -5.1987,-10.19535 -1.82178,-14.66973 2.82224,-4.03034 8.25463,-4.76851 12.70788,-5.58196 4.18821,1.02897 1.00134,-6.39489 -1.11612,-2.5252 -2.63023,3.25456 -8.21285,4.24116 -11.32586,1.15726 -2.88249,2.97379 -6.83093,1.14749 -9.42033,-0.53621 -4.70512,3.58823 -11.27441,3.34061 -16.78315,1.7961 -4.22603,-1.18488 -7.46294,-4.41274 -7.49822,-8.87109 -0.35959,-5.1388 4.61714,-9.23463 9.41127,-9.71336 4.38203,-0.82168 8.51713,1.23404 11.43611,4.41712 2.56526,1.78311 -0.33116,8.61308 -2.33789,3.74223 -2.33892,-2.73701 -5.82549,-4.91685 -9.83539,-3.52612 -4.35355,1.50991 -4.42146,6.65794 -1.41901,9.07561 4.53518,2.82709 10.74675,0.65025 13.94857,-3.22629 3.28942,-3.54045 0.35195,-7.8883 -0.97628,-11.51294 -2.40495,-4.53213 1.69191,-9.19143 6.53427,-8.41699 3.75168,-0.15385 8.10873,5.38178 3.64714,7.74073 -1.79138,1.92665 -3.44822,-1.86315 -1.80725,-2.99332 -4.46529,-1.9311 -2.30087,5.01877 -0.34478,6.47046 2.25594,2.92631 1.6008,9.40867 -0.84791,11.43986 3.29361,2.08382 6.32092,-3.35988 8.20116,-5.47957 0.87705,-1.26594 2.98825,-6.52454 1.27159,-5.89886 -1.22574,3.48439 -2.13673,7.25548 -5.02929,9.79385 -0.68093,-3.69472 0.13783,-8.47576 2.42641,-11.77688 3.0171,-5.0703 8.23616,-1.989 6.56611,4.41455 -0.89129,3.41749 -2.2759,7.31448 -3.38801,9.48698 1.59309,1.56969 4.65475,-2.64877 4.54324,-5.66948 -0.2705,-7.32737 1.46187,-14.53709 3.61238,-21.44141 1.69599,-4.84981 3.90126,-10.37362 8.82325,-12.72136 4.77539,-1.25555 5.52396,4.78796 4.86054,8.1264 -0.0163,1.86887 -2.33303,7.43436 0.48502,3.30572 2.13002,-4.03785 10.10319,-5.20809 9.11052,1.04181 0.0708,4.56597 -2.48208,8.60345 -4.11132,12.71197 4.90531,-1.90512 7.52265,4.46989 4.30674,7.70175 -1.96893,3.6617 -5.94735,5.39583 -9.58246,6.48243 1.04998,4.72969 6.78801,5.41061 9.18628,1.26783 1.09727,-0.77134 2.17475,3.90769 0.49131,4.68001 -4.35852,2.15005 6.29236,1.65688 4.49533,1.61161 -4.32194,-1.85061 -3.18337,-7.75419 -3.98047,-11.58191 0.56674,-3.9156 1.13911,-8.59528 4.49267,-11.1902 4.83863,-2.37481 6.2863,4.35059 3.5745,7.29774 -0.66543,1.19487 -2.80046,6.43312 -3.25207,5.1357 -0.39479,-2.43866 1.62515,-7.17171 0.52444,-8.12557 -1.67447,3.49962 -2.0445,7.89287 -0.73672,11.55719 2.70984,3.11789 9.05925,0.88506 8.45327,-3.53115 0.59625,-4.35224 -0.0164,-10.00695 4.33697,-12.60972 5.29652,-0.69071 4.20462,6.1855 2.44305,9.09664 -2.47003,3.34927 -2.38724,7.4539 -3.28706,11.31449 -1.43152,6.42543 -4.4714,12.573 -9.52183,16.91366 -3.30677,3.46552 -7.45522,5.97862 -12.07682,7.26433 -4.80834,1.7362 -9.97605,2.13543 -15.04829,1.77107 z m 5.72545,-4.70874 c 8.89913,-0.85324 17.63357,-5.93513 22.04699,-13.80209 -5.262,-0.80156 -10.61213,-0.87457 -15.89647,-1.51335 -6.53277,-0.13063 -13.12204,-0.69093 -19.62806,-0.0262 -3.61877,0.49209 -7.04455,4.15597 -5.51445,7.90553 1.49725,4.29838 6.47291,5.56519 10.38898,6.68618 2.82869,0.52622 5.7168,1.29524 8.60301,0.74988 z m 25.00998,-18.73458 c 0.1761,-1.21104 -2.89863,1.05413 -0.25435,0.31142 z m -21.8636,-1.79609 c -1.9498,-1.19004 -2.21725,-7.57212 -4.03416,-3.057 -0.65905,0.6617 -1.53474,1.61166 -1.80604,2.3127 -0.2713,0.70104 0.0618,1.15315 1.8203,0.81916 1.33908,0.0122 2.68719,0.0956 4.01988,-0.0749 z m -6.82837,-9.16275 c 6.18282,-3.55764 8.28577,-10.82991 11.31256,-16.83081 0.94508,-1.97388 3.62141,-9.61527 0.008,-5.03737 -4.05726,5.24453 -6.54426,11.56118 -8.63204,17.79658 0.30328,3.20012 -5.95848,5.91566 -4.27399,1.05574 0.57189,-2.00718 1.77875,-5.77865 -0.18128,-1.85998 -2.23474,1.96787 -2.0782,6.48082 1.76629,4.87584 z m 8.63021,-0.86894 c 2.24392,-1.09974 6.04062,-3.91327 5.72204,-5.97753 -2.39241,0.75923 -6.76346,5.17377 -6.44213,6.29862 z m 26.62457,-3.7727 c 1.25862,-1.20393 1.1248,-5.52509 -0.006,-1.9283 0.008,0.20201 -0.69595,3.44431 0.006,1.9283 z m -38.47051,-5.1579 c 2.97405,-6.88769 6.29217,-13.92883 6.69566,-21.53456 -3.55668,3.14004 -4.79766,8.11714 -6.33927,12.48017 -1.1388,3.55663 -2.07044,7.35978 -1.51839,11.07855 0.51395,-0.5958 0.8068,-1.3337 1.162,-2.02416 z"
           style="fill:#999999;stroke-width:0.172269" />
      </g>
    </g>
  </g>
</svg>
