<?xml version="1.0" encoding="UTF-8" standalone="no"?>
<!-- Created with Inkscape (http://www.inkscape.org/) -->

<svg
   xmlns:dc="http://purl.org/dc/elements/1.1/"
   xmlns:cc="http://creativecommons.org/ns#"
   xmlns:rdf="http://www.w3.org/1999/02/22-rdf-syntax-ns#"
   xmlns:svg="http://www.w3.org/2000/svg"
   xmlns="http://www.w3.org/2000/svg"
   xmlns:sodipodi="http://sodipodi.sourceforge.net/DTD/sodipodi-0.dtd"
   xmlns:inkscape="http://www.inkscape.org/namespaces/inkscape"
   width="46.541088mm"
   height="47.356033mm"
   viewBox="0 0 46.541088 47.356033"
   version="1.1"
   id="svg4546"
   inkscape:version="0.92.4 (5da689c313, 2019-01-14)"
   sodipodi:docname="smallLogo.svg">
  <defs
     id="defs4540" />
  <sodipodi:namedview
     id="base"
     pagecolor="#ffffff"
     bordercolor="#666666"
     borderopacity="1.0"
     inkscape:pageopacity="0.0"
     inkscape:pageshadow="2"
     inkscape:zoom="0.98994949"
     inkscape:cx="270.58434"
     inkscape:cy="76.442945"
     inkscape:document-units="mm"
     inkscape:current-layer="layer1"
     showgrid="false"
     fit-margin-top="0"
     fit-margin-left="0"
     fit-margin-right="0"
     fit-margin-bottom="0"
     inkscape:window-width="1920"
     inkscape:window-height="1017"
     inkscape:window-x="-8"
     inkscape:window-y="-8"
     inkscape:window-maximized="1" />
  <metadata
     id="metadata4543">
    <rdf:RDF>
      <cc:Work
         rdf:about="">
        <dc:format>image/svg+xml</dc:format>
        <dc:type
           rdf:resource="http://purl.org/dc/dcmitype/StillImage" />
        <dc:title></dc:title>
      </cc:Work>
    </rdf:RDF>
  </metadata>
  <g
     inkscape:label="Layer 1"
     inkscape:groupmode="layer"
     id="layer1"
     transform="translate(-69.872472,-174.54113)">
    <path
       style="fill:#ffffff;stroke-width:0.05168003"
       d="m 84.272192,221.87413 c -2.150168,-0.0789 -3.72977,-0.30206 -5.110638,-0.72193 -2.046161,-0.62216 -3.25628,-1.14547 -4.36136,-1.88606 -0.882981,-0.59174 -2.375012,-1.94386 -2.980172,-2.70071 -0.56143,-0.70216 -1.135769,-1.8558 -1.46939,-2.95149 -0.179221,-0.58857 -0.478218,-2.30297 -0.47816,-2.74162 6.1e-5,-0.48882 0.10432,-1.32988 0.20534,-1.65657 0.138851,-0.44908 0.79596,-1.80515 1.062472,-2.19264 0.133778,-0.19451 0.271198,-0.4219 0.305379,-0.50532 0.213879,-0.52206 1.366449,-1.82565 2.66994,-3.0198 1.097809,-1.00573 3.24127,-2.41477 4.73442,-3.11224 1.465011,-0.68433 2.935901,-1.04696 5.04105,-1.24282 2.43213,-0.22628 4.095499,-0.15257 6.058429,0.26849 2.765851,0.59328 6.2063,2.01914 8.300062,3.43987 1.114049,0.75595 1.564968,1.17179 1.694669,1.56285 0.0307,0.0925 0.100757,0.20953 0.155757,0.26012 0.21182,0.19485 0.14873,1.59785 -0.095,2.11308 -0.0552,0.11671 -0.269536,0.49842 -0.476266,0.84825 -0.533791,0.90326 -0.900771,1.18574 -1.441611,1.10968 -0.282599,-0.0398 -0.600739,-0.26188 -0.76812,-0.53631 -0.153209,-0.25121 -1.081868,-1.35252 -1.377659,-1.63381 -1.170641,-1.11324 -2.31208,-1.85358 -3.77839,-2.45066 -2.469369,-1.00554 -4.341701,-1.22486 -6.855841,-0.80309 -2.653638,0.44518 -4.453699,1.30084 -6.11197,2.90531 -2.309249,2.23434 -3.14533,4.78604 -2.270099,6.92831 0.46994,1.15023 1.532499,2.04269 3.284379,2.7586 1.85665,0.75871 4.007472,1.00589 6.513722,0.7486 2.100019,-0.21559 4.327109,-0.69898 5.579128,-1.21094 1.058701,-0.43291 3.69996,-1.96299 4.854271,-2.81209 1.660861,-1.22171 3.375666,-3.24062 4.252586,-5.00673 0.2584,-0.52044 0.78055,-2.0664 0.88265,-2.61338 0.30556,-1.63695 0.39189,-4.30775 0.18748,-5.79989 -0.23387,-1.70704 -0.52245,-2.84036 -1.05058,-4.12594 -1.42494,-3.46849 -1.947666,-4.60304 -2.666846,-5.7881 l -0.236079,-0.38902 h -0.249211 c -0.13707,0 -0.4987,-0.0412 -0.803619,-0.0915 -2.114762,-0.34903 -2.9473,-0.43695 -4.11021,-0.43402 -1.053081,0.003 -1.824871,0.061 -2.66936,0.20169 -1.80091,0.3001 -3.191772,0.7107 -4.367292,1.28927 -1.177308,0.57946 -2.941299,2.04463 -4.03217,3.34912 -0.238559,0.28528 -0.550278,0.65596 -0.692698,0.82374 -0.346062,0.40768 -0.52184,0.67597 -0.86596,1.32174 -0.363141,0.68147 -0.701342,1.43509 -0.834922,1.86043 -0.10827,0.34479 -0.24339,0.48274 -0.59776,0.61026 -0.0938,0.0338 -0.45131,0.22953 -0.794448,0.43505 -0.343152,0.20553 -0.750692,0.4351 -0.90564,0.51016 -0.809641,0.39222 -2.328661,1.40105 -3.486661,2.31559 -0.11612,0.0917 -0.206121,0.11556 -0.436081,0.11556 -0.267488,0 -0.301969,-0.0134 -0.44841,-0.17381 l -0.15865,-0.1738 0.01281,-0.93933 c 0.01119,-0.82266 0.0308,-1.00146 0.157639,-1.43969 0.0797,-0.27521 0.170222,-0.71325 0.201242,-0.97342 0.119028,-0.99854 0.3243,-1.71995 0.852419,-2.99576 1.162213,-2.26779 2.763216,-4.11602 4.63287,-5.84363 1.532149,-1.39913 3.99832,-2.88856 6.227551,-3.76109 2.017619,-0.78972 3.976089,-1.34282 5.644099,-1.59399 0.280379,-0.0422 0.700929,-0.11647 0.93458,-0.165 1.097571,-0.22798 1.281279,-0.24386 2.973649,-0.25704 l 1.642592,-0.0128 0.0358,-0.13637 c 0.01971,-0.075 0.0388,-0.37034 0.0425,-0.6563 0.008,-0.64196 0.09,-1.21521 0.235582,-1.65215 0.133308,-0.40014 0.13593,-0.44495 0.02601,-0.44495 -0.13108,0 -0.106288,-0.30387 0.0425,-0.52077 0.081,-0.11803 0.16877,-0.18612 0.240731,-0.18668 0.0888,-8e-4 0.147849,-0.0777 0.27323,-0.35612 0.33474,-0.74349 1.650011,-1.97362 3.050443,-2.853 0.94872,-0.59574 2.5473,-1.17031 3.92637,-1.41126 0.72873,-0.12731 1.99993,-0.17483 2.62892,-0.0983 1.25723,0.15305 2.24186,0.6113 3.06363,1.42586 0.54155,0.5368 1.06608,1.4868 1.27568,2.31041 0.1468,0.57689 0.20576,1.50506 0.14107,2.22077 -0.0733,0.8111 -0.16652,1.19771 -0.45911,1.90411 -0.46586,1.12475 -0.72296,1.61332 -1.20741,2.2945 -0.14388,0.20231 -0.34789,0.50999 -0.45335,0.68373 -0.10545,0.17374 -0.27399,0.37954 -0.37451,0.45735 -0.10052,0.0778 -0.24968,0.20327 -0.33145,0.27882 -0.62529,0.5777 -1.28486,1.14532 -1.38633,1.19306 -0.1626,0.0765 -0.66331,0.0733 -0.78726,-0.005 -0.0545,-0.0345 -0.0991,-0.0937 -0.0991,-0.13178 0,-0.038 -0.2043,-0.4672 -0.454,-0.95371 -0.2497,-0.48652 -0.50671,-1.05781 -0.57112,-1.26955 -0.0644,-0.21173 -0.1889,-0.57594 -0.27662,-0.80935 -0.43809,-1.16563 -0.44401,-1.67685 -0.0295,-2.54629 0.14837,-0.31121 0.29667,-0.69625 0.32954,-0.85564 0.0587,-0.28475 0.0564,-0.29438 -0.13262,-0.55405 -0.10582,-0.14534 -0.21656,-0.26426 -0.24609,-0.26426 -0.0953,0 -0.64752,0.37117 -0.78826,0.52981 -0.21277,0.23981 -0.33252,0.5464 -0.36504,0.93464 -0.0487,0.58152 0.0942,1.04465 0.94184,3.0516 0.18919,0.44797 0.39675,0.98655 0.46125,1.19685 0.0645,0.2103 0.25821,0.68193 0.43046,1.04808 0.17224,0.36614 0.47496,1.04765 0.67274,1.51447 0.19775,0.46682 0.50133,1.18392 0.67461,1.59355 0.17327,0.40962 0.44169,1.10985 0.59648,1.55606 0.15478,0.44621 0.45921,1.24629 0.6765,1.77794 0.21728,0.53166 0.48645,1.26372 0.59812,1.6268 0.11168,0.36309 0.39188,1.13758 0.62268,1.72111 0.7442,1.88156 1.04158,3.08092 1.22596,4.94428 0.0826,0.83431 0.0356,2.59689 -0.0893,3.35475 -0.31414,1.90546 -0.5517,2.71981 -1.27239,4.36171 -0.69821,1.5907 -0.7118,1.61878 -1.08985,2.25217 l -0.33104,0.55464 0.39716,0.4928 c 0.50217,0.62311 1.15249,1.26639 1.52637,1.50989 0.51535,0.33561 1.31961,0.47521 2.05412,0.35653 0.34997,-0.0565 1.2985,-0.42263 2.08495,-0.80469 l 2.53056,6.48153 c -1.47663,0.72083 -3.17729,1.21757 -4.61582,1.34823 -0.96811,0.0879 -2.32832,0.0362 -3.01885,-0.11477 -1.87021,-0.40893 -3.05133,-1.08468 -4.27576,-2.44627 -0.22791,-0.25344 -0.508,-0.60355 -0.62241,-0.77803 -0.11441,-0.17447 -0.31363,-0.46973 -0.4427,-0.65611 l -0.23469,-0.33888 -0.50808,0.33355 c -1.30059,0.85382 -3.059723,1.70352 -4.790521,2.31395 -1.73056,0.61032 -4.99269,1.40633 -7.102412,1.73307 -2.789269,0.432 -4.387469,0.54654 -6.52908,0.46792 z m 11.768371,-39.27658 c 0,-0.11945 0.02199,-0.14146 0.141599,-0.14146 0.119581,0 0.1416,0.022 0.1416,0.14146 0,0.11946 -0.02199,0.14146 -0.1416,0.14146 -0.11957,0 -0.141599,-0.022 -0.141599,-0.14146 z"
       id="path4529"
       inkscape:connector-curvature="0"
       sodipodi:nodetypes="cscscccccccscccccccccccccccscccccccsccccccccccccscccccccccccccccsccccccccccccccccsccccccscccsccccccsccccccccccccsccccccccsssss" />
  </g>
</svg>
